<svg width="684" height="283" viewBox="0 0 684 283" fill="none" xmlns="http://www.w3.org/2000/svg">
<rect x="0.25" y="0.25" width="683.5" height="282.5" fill="url(#paint0_radial_12_584)" fill-opacity="0.1" stroke="white" stroke-width="0.5"/>
<path d="M204.354 34.6464C204.158 34.4512 203.842 34.4512 203.646 34.6464L200.464 37.8284C200.269 38.0237 200.269 38.3403 200.464 38.5355C200.66 38.7308 200.976 38.7308 201.172 38.5355L204 35.7071L206.828 38.5355C207.024 38.7308 207.34 38.7308 207.536 38.5355C207.731 38.3403 207.731 38.0237 207.536 37.8284L204.354 34.6464ZM204.5 240V35H203.5V240H204.5Z" fill="white"/>
<path d="M204 203.5C301 203.5 463 194.5 463 35" stroke="white" stroke-width="6" stroke-dasharray="8 8"/>
<path d="M474 239V35" stroke="white" stroke-opacity="0.3" stroke-width="0.5"/>
<path d="M437 239V35" stroke="white" stroke-opacity="0.3" stroke-width="0.5"/>
<path d="M400 239V35" stroke="white" stroke-opacity="0.3" stroke-width="0.5"/>
<path d="M363 239V35" stroke="white" stroke-opacity="0.3" stroke-width="0.5"/>
<path d="M326 239V35" stroke="white" stroke-opacity="0.3" stroke-width="0.5"/>
<path d="M289 239V35" stroke="white" stroke-opacity="0.3" stroke-width="0.5"/>
<path d="M252 239V35" stroke="white" stroke-opacity="0.3" stroke-width="0.5"/>
<path d="M215 239V35" stroke="white" stroke-opacity="0.3" stroke-width="0.5"/>
<path d="M474.354 239.354C474.549 239.158 474.549 238.842 474.354 238.646L471.172 235.464C470.976 235.269 470.66 235.269 470.464 235.464C470.269 235.66 470.269 235.976 470.464 236.172L473.293 239L470.464 241.828C470.269 242.024 470.269 242.34 470.464 242.536C470.66 242.731 470.976 242.731 471.172 242.536L474.354 239.354ZM204 239.5H474V238.5H204V239.5Z" fill="white"/>
<path d="M204 35H474" stroke="white" stroke-opacity="0.3" stroke-width="0.5"/>
<path d="M204 69H474" stroke="white" stroke-opacity="0.3" stroke-width="0.5"/>
<path d="M204 103H474" stroke="white" stroke-opacity="0.3" stroke-width="0.5"/>
<path d="M204 137H474" stroke="white" stroke-opacity="0.3" stroke-width="0.5"/>
<path d="M204 171H474" stroke="white" stroke-opacity="0.3" stroke-width="0.5"/>
<path d="M204 205H474" stroke="white" stroke-opacity="0.3" stroke-width="0.5"/>
<path d="M48 37.04V39.3H42.18V42.88H46.64V45.1H42.18V51H39.38V37.04H48ZM53.7855 48.78H58.3855V51H50.9855V37.04H53.7855V48.78ZM67.6452 51.14C66.3385 51.14 65.1385 50.8333 64.0452 50.22C62.9518 49.6067 62.0852 48.76 61.4452 47.68C60.8052 46.5867 60.4852 45.3533 60.4852 43.98C60.4852 42.62 60.8052 41.4 61.4452 40.32C62.0852 39.2267 62.9518 38.3733 64.0452 37.76C65.1385 37.1467 66.3385 36.84 67.6452 36.84C68.9652 36.84 70.1652 37.1467 71.2452 37.76C72.3385 38.3733 73.1985 39.2267 73.8252 40.32C74.4652 41.4 74.7852 42.62 74.7852 43.98C74.7852 45.3533 74.4652 46.5867 73.8252 47.68C73.1985 48.76 72.3385 49.6067 71.2452 50.22C70.1518 50.8333 68.9518 51.14 67.6452 51.14ZM67.6452 48.64C68.4852 48.64 69.2252 48.4533 69.8652 48.08C70.5052 47.6933 71.0052 47.1467 71.3652 46.44C71.7252 45.7333 71.9052 44.9133 71.9052 43.98C71.9052 43.0467 71.7252 42.2333 71.3652 41.54C71.0052 40.8333 70.5052 40.2933 69.8652 39.92C69.2252 39.5467 68.4852 39.36 67.6452 39.36C66.8052 39.36 66.0585 39.5467 65.4052 39.92C64.7652 40.2933 64.2652 40.8333 63.9052 41.54C63.5452 42.2333 63.3652 43.0467 63.3652 43.98C63.3652 44.9133 63.5452 45.7333 63.9052 46.44C64.2652 47.1467 64.7652 47.6933 65.4052 48.08C66.0585 48.4533 66.8052 48.64 67.6452 48.64ZM84.3483 51.14C83.0416 51.14 81.8416 50.8333 80.7483 50.22C79.6549 49.6067 78.7883 48.76 78.1483 47.68C77.5083 46.5867 77.1883 45.3533 77.1883 43.98C77.1883 42.62 77.5083 41.4 78.1483 40.32C78.7883 39.2267 79.6549 38.3733 80.7483 37.76C81.8416 37.1467 83.0416 36.84 84.3483 36.84C85.6683 36.84 86.8683 37.1467 87.9483 37.76C89.0416 38.3733 89.9016 39.2267 90.5283 40.32C91.1683 41.4 91.4883 42.62 91.4883 43.98C91.4883 45.3533 91.1683 46.5867 90.5283 47.68C89.9016 48.76 89.0416 49.6067 87.9483 50.22C86.8549 50.8333 85.6549 51.14 84.3483 51.14ZM84.3483 48.64C85.1883 48.64 85.9283 48.4533 86.5683 48.08C87.2083 47.6933 87.7083 47.1467 88.0683 46.44C88.4283 45.7333 88.6083 44.9133 88.6083 43.98C88.6083 43.0467 88.4283 42.2333 88.0683 41.54C87.7083 40.8333 87.2083 40.2933 86.5683 39.92C85.9283 39.5467 85.1883 39.36 84.3483 39.36C83.5083 39.36 82.7616 39.5467 82.1083 39.92C81.4683 40.2933 80.9683 40.8333 80.6083 41.54C80.2483 42.2333 80.0683 43.0467 80.0683 43.98C80.0683 44.9133 80.2483 45.7333 80.6083 46.44C80.9683 47.1467 81.4683 47.6933 82.1083 48.08C82.7616 48.4533 83.5083 48.64 84.3483 48.64ZM101.771 51L98.6914 45.56H97.3714V51H94.5714V37.04H99.8114C100.891 37.04 101.811 37.2333 102.571 37.62C103.331 37.9933 103.898 38.5067 104.271 39.16C104.658 39.8 104.851 40.52 104.851 41.32C104.851 42.24 104.585 43.0733 104.051 43.82C103.518 44.5533 102.725 45.06 101.671 45.34L105.011 51H101.771ZM97.3714 43.46H99.7114C100.471 43.46 101.038 43.28 101.411 42.92C101.785 42.5467 101.971 42.0333 101.971 41.38C101.971 40.74 101.785 40.2467 101.411 39.9C101.038 39.54 100.471 39.36 99.7114 39.36H97.3714V43.46ZM124.33 41.36C124.33 42.1067 124.15 42.8067 123.79 43.46C123.443 44.1133 122.89 44.64 122.13 45.04C121.383 45.44 120.436 45.64 119.29 45.64H116.95V51H114.15V37.04H119.29C120.37 37.04 121.29 37.2267 122.05 37.6C122.81 37.9733 123.376 38.4867 123.75 39.14C124.136 39.7933 124.33 40.5333 124.33 41.36ZM119.17 43.38C119.943 43.38 120.516 43.2067 120.89 42.86C121.263 42.5 121.45 42 121.45 41.36C121.45 40 120.69 39.32 119.17 39.32H116.95V43.38H119.17ZM134.518 51L131.438 45.56H130.118V51H127.318V37.04H132.558C133.638 37.04 134.558 37.2333 135.318 37.62C136.078 37.9933 136.644 38.5067 137.018 39.16C137.404 39.8 137.598 40.52 137.598 41.32C137.598 42.24 137.331 43.0733 136.798 43.82C136.264 44.5533 135.471 45.06 134.418 45.34L137.758 51H134.518ZM130.118 43.46H132.458C133.218 43.46 133.784 43.28 134.158 42.92C134.531 42.5467 134.718 42.0333 134.718 41.38C134.718 40.74 134.531 40.2467 134.158 39.9C133.784 39.54 133.218 39.36 132.458 39.36H130.118V43.46ZM143.93 37.04V51H141.13V37.04H143.93ZM147.016 44C147.016 42.6267 147.323 41.4 147.936 40.32C148.563 39.2267 149.41 38.38 150.476 37.78C151.556 37.1667 152.763 36.86 154.096 36.86C155.656 36.86 157.023 37.26 158.196 38.06C159.37 38.86 160.19 39.9667 160.656 41.38H157.436C157.116 40.7133 156.663 40.2133 156.076 39.88C155.503 39.5467 154.836 39.38 154.076 39.38C153.263 39.38 152.536 39.5733 151.896 39.96C151.27 40.3333 150.776 40.8667 150.416 41.56C150.07 42.2533 149.896 43.0667 149.896 44C149.896 44.92 150.07 45.7333 150.416 46.44C150.776 47.1333 151.27 47.6733 151.896 48.06C152.536 48.4333 153.263 48.62 154.076 48.62C154.836 48.62 155.503 48.4533 156.076 48.12C156.663 47.7733 157.116 47.2667 157.436 46.6H160.656C160.19 48.0267 159.37 49.14 158.196 49.94C157.036 50.7267 155.67 51.12 154.096 51.12C152.763 51.12 151.556 50.82 150.476 50.22C149.41 49.6067 148.563 48.76 147.936 47.68C147.323 46.6 147.016 45.3733 147.016 44ZM166.848 39.3V42.8H171.548V45.02H166.848V48.72H172.148V51H164.048V37.02H172.148V39.3H166.848Z" fill="white"/>
<path d="M513.2 246.14C512.227 246.14 511.347 245.973 510.56 245.64C509.787 245.307 509.173 244.827 508.72 244.2C508.267 243.573 508.033 242.833 508.02 241.98H511.02C511.06 242.553 511.26 243.007 511.62 243.34C511.993 243.673 512.5 243.84 513.14 243.84C513.793 243.84 514.307 243.687 514.68 243.38C515.053 243.06 515.24 242.647 515.24 242.14C515.24 241.727 515.113 241.387 514.86 241.12C514.607 240.853 514.287 240.647 513.9 240.5C513.527 240.34 513.007 240.167 512.34 239.98C511.433 239.713 510.693 239.453 510.12 239.2C509.56 238.933 509.073 238.54 508.66 238.02C508.26 237.487 508.06 236.78 508.06 235.9C508.06 235.073 508.267 234.353 508.68 233.74C509.093 233.127 509.673 232.66 510.42 232.34C511.167 232.007 512.02 231.84 512.98 231.84C514.42 231.84 515.587 232.193 516.48 232.9C517.387 233.593 517.887 234.567 517.98 235.82H514.9C514.873 235.34 514.667 234.947 514.28 234.64C513.907 234.32 513.407 234.16 512.78 234.16C512.233 234.16 511.793 234.3 511.46 234.58C511.14 234.86 510.98 235.267 510.98 235.8C510.98 236.173 511.1 236.487 511.34 236.74C511.593 236.98 511.9 237.18 512.26 237.34C512.633 237.487 513.153 237.66 513.82 237.86C514.727 238.127 515.467 238.393 516.04 238.66C516.613 238.927 517.107 239.327 517.52 239.86C517.933 240.393 518.14 241.093 518.14 241.96C518.14 242.707 517.947 243.4 517.56 244.04C517.173 244.68 516.607 245.193 515.86 245.58C515.113 245.953 514.227 246.14 513.2 246.14ZM531.068 232.04V234.3H527.348V246H524.548V234.3H520.828V232.04H531.068ZM542.67 243.34H537.11L536.19 246H533.25L538.27 232.02H541.53L546.55 246H543.59L542.67 243.34ZM541.91 241.1L539.89 235.26L537.87 241.1H541.91ZM557.307 246L552.227 239.78V246H549.427V232.04H552.227V238.3L557.307 232.04H560.687L554.927 238.96L560.847 246H557.307ZM566.489 234.3V237.8H571.189V240.02H566.489V243.72H571.789V246H563.689V232.02H571.789V234.3H566.489ZM580.213 232.04C581.68 232.04 582.966 232.327 584.073 232.9C585.193 233.473 586.053 234.293 586.653 235.36C587.266 236.413 587.573 237.64 587.573 239.04C587.573 240.44 587.266 241.667 586.653 242.72C586.053 243.76 585.193 244.567 584.073 245.14C582.966 245.713 581.68 246 580.213 246H575.333V232.04H580.213ZM580.113 243.62C581.58 243.62 582.713 243.22 583.513 242.42C584.313 241.62 584.713 240.493 584.713 239.04C584.713 237.587 584.313 236.453 583.513 235.64C582.713 234.813 581.58 234.4 580.113 234.4H578.133V243.62H580.113ZM608.375 246H605.575L599.235 236.42V246H596.435V232.02H599.235L605.575 241.62V232.02H608.375V246ZM620.762 232.04V234.3H614.942V237.88H619.402V240.1H614.942V246H612.142V232.04H620.762ZM633.247 232.04V234.3H629.527V246H626.727V234.3H623.007V232.04H633.247ZM640.53 246.18C639.623 246.18 638.81 246.02 638.09 245.7C637.37 245.367 636.797 244.92 636.37 244.36C635.957 243.8 635.73 243.18 635.69 242.5H638.51C638.563 242.927 638.77 243.28 639.13 243.56C639.503 243.84 639.963 243.98 640.51 243.98C641.043 243.98 641.457 243.873 641.75 243.66C642.057 243.447 642.21 243.173 642.21 242.84C642.21 242.48 642.023 242.213 641.65 242.04C641.29 241.853 640.71 241.653 639.91 241.44C639.083 241.24 638.403 241.033 637.87 240.82C637.35 240.607 636.897 240.28 636.51 239.84C636.137 239.4 635.95 238.807 635.95 238.06C635.95 237.447 636.123 236.887 636.47 236.38C636.83 235.873 637.337 235.473 637.99 235.18C638.657 234.887 639.437 234.74 640.33 234.74C641.65 234.74 642.703 235.073 643.49 235.74C644.277 236.393 644.71 237.28 644.79 238.4H642.11C642.07 237.96 641.883 237.613 641.55 237.36C641.23 237.093 640.797 236.96 640.25 236.96C639.743 236.96 639.35 237.053 639.07 237.24C638.803 237.427 638.67 237.687 638.67 238.02C638.67 238.393 638.857 238.68 639.23 238.88C639.603 239.067 640.183 239.26 640.97 239.46C641.77 239.66 642.43 239.867 642.95 240.08C643.47 240.293 643.917 240.627 644.29 241.08C644.677 241.52 644.877 242.107 644.89 242.84C644.89 243.48 644.71 244.053 644.35 244.56C644.003 245.067 643.497 245.467 642.83 245.76C642.177 246.04 641.41 246.18 640.53 246.18Z" fill="white"/>
<defs>
<radialGradient id="paint0_radial_12_584" cx="0" cy="0" r="1" gradientUnits="userSpaceOnUse" gradientTransform="translate(712.5 -2.25012e-05) rotate(160.541) scale(849.523 366.858)">
<stop stop-color="#5EB1ED"/>
<stop offset="0.515625" stop-color="#913DFD"/>
<stop offset="0.927083" stop-color="#3DFDDA"/>
</radialGradient>
</defs>
</svg>
