<svg width="684" height="283" viewBox="0 0 684 283" fill="none" xmlns="http://www.w3.org/2000/svg">
<rect x="0.25" y="0.25" width="683.5" height="282.5" fill="url(#paint0_radial_12_609)" fill-opacity="0.1" stroke="white" stroke-width="0.5"/>
<path d="M204.354 34.6464C204.158 34.4512 203.842 34.4512 203.646 34.6464L200.464 37.8284C200.269 38.0237 200.269 38.3403 200.464 38.5355C200.66 38.7308 200.976 38.7308 201.172 38.5355L204 35.7071L206.828 38.5355C207.024 38.7308 207.34 38.7308 207.536 38.5355C207.731 38.3403 207.731 38.0237 207.536 37.8284L204.354 34.6464ZM204.5 240V35H203.5V240H204.5Z" fill="white"/>
<path d="M474 239V35" stroke="white" stroke-opacity="0.3" stroke-width="0.5"/>
<path d="M437 239V35" stroke="white" stroke-opacity="0.3" stroke-width="0.5"/>
<path d="M400 239V35" stroke="white" stroke-opacity="0.3" stroke-width="0.5"/>
<path d="M363 239V35" stroke="white" stroke-opacity="0.3" stroke-width="0.5"/>
<path d="M326 239V35" stroke="white" stroke-opacity="0.3" stroke-width="0.5"/>
<path d="M289 239V35" stroke="white" stroke-opacity="0.3" stroke-width="0.5"/>
<path d="M252 239V35" stroke="white" stroke-opacity="0.3" stroke-width="0.5"/>
<path d="M215 239V35" stroke="white" stroke-opacity="0.3" stroke-width="0.5"/>
<path d="M204 35H474" stroke="white" stroke-opacity="0.3" stroke-width="0.5"/>
<path d="M204 68.8342H474" stroke="white" stroke-opacity="0.3" stroke-width="0.5"/>
<path d="M204 102.668H474" stroke="white" stroke-opacity="0.3" stroke-width="0.5"/>
<path d="M204 136.502H474" stroke="white" stroke-opacity="0.3" stroke-width="0.5"/>
<path d="M204 170.337H474" stroke="white" stroke-opacity="0.3" stroke-width="0.5"/>
<path d="M204 204.171H474" stroke="white" stroke-opacity="0.3" stroke-width="0.5"/>
<path d="M204 205.5C249.5 -60.0001 356.5 171 474 171" stroke="white" stroke-width="6" stroke-dasharray="8 8"/>
<path d="M474.354 239.354C474.549 239.158 474.549 238.842 474.354 238.646L471.172 235.464C470.976 235.269 470.66 235.269 470.464 235.464C470.269 235.66 470.269 235.976 470.464 236.172L473.293 239L470.464 241.828C470.269 242.024 470.269 242.34 470.464 242.536C470.66 242.731 470.976 242.731 471.172 242.536L474.354 239.354ZM204 239.5H474V238.5H204V239.5Z" fill="white"/>
<path d="M48 37.04V39.3H42.18V42.88H46.64V45.1H42.18V51H39.38V37.04H48ZM53.7855 48.78H58.3855V51H50.9855V37.04H53.7855V48.78ZM67.6452 51.14C66.3385 51.14 65.1385 50.8333 64.0452 50.22C62.9518 49.6067 62.0852 48.76 61.4452 47.68C60.8052 46.5867 60.4852 45.3533 60.4852 43.98C60.4852 42.62 60.8052 41.4 61.4452 40.32C62.0852 39.2267 62.9518 38.3733 64.0452 37.76C65.1385 37.1467 66.3385 36.84 67.6452 36.84C68.9652 36.84 70.1652 37.1467 71.2452 37.76C72.3385 38.3733 73.1985 39.2267 73.8252 40.32C74.4652 41.4 74.7852 42.62 74.7852 43.98C74.7852 45.3533 74.4652 46.5867 73.8252 47.68C73.1985 48.76 72.3385 49.6067 71.2452 50.22C70.1518 50.8333 68.9518 51.14 67.6452 51.14ZM67.6452 48.64C68.4852 48.64 69.2252 48.4533 69.8652 48.08C70.5052 47.6933 71.0052 47.1467 71.3652 46.44C71.7252 45.7333 71.9052 44.9133 71.9052 43.98C71.9052 43.0467 71.7252 42.2333 71.3652 41.54C71.0052 40.8333 70.5052 40.2933 69.8652 39.92C69.2252 39.5467 68.4852 39.36 67.6452 39.36C66.8052 39.36 66.0585 39.5467 65.4052 39.92C64.7652 40.2933 64.2652 40.8333 63.9052 41.54C63.5452 42.2333 63.3652 43.0467 63.3652 43.98C63.3652 44.9133 63.5452 45.7333 63.9052 46.44C64.2652 47.1467 64.7652 47.6933 65.4052 48.08C66.0585 48.4533 66.8052 48.64 67.6452 48.64ZM84.3483 51.14C83.0416 51.14 81.8416 50.8333 80.7483 50.22C79.6549 49.6067 78.7883 48.76 78.1483 47.68C77.5083 46.5867 77.1883 45.3533 77.1883 43.98C77.1883 42.62 77.5083 41.4 78.1483 40.32C78.7883 39.2267 79.6549 38.3733 80.7483 37.76C81.8416 37.1467 83.0416 36.84 84.3483 36.84C85.6683 36.84 86.8683 37.1467 87.9483 37.76C89.0416 38.3733 89.9016 39.2267 90.5283 40.32C91.1683 41.4 91.4883 42.62 91.4883 43.98C91.4883 45.3533 91.1683 46.5867 90.5283 47.68C89.9016 48.76 89.0416 49.6067 87.9483 50.22C86.8549 50.8333 85.6549 51.14 84.3483 51.14ZM84.3483 48.64C85.1883 48.64 85.9283 48.4533 86.5683 48.08C87.2083 47.6933 87.7083 47.1467 88.0683 46.44C88.4283 45.7333 88.6083 44.9133 88.6083 43.98C88.6083 43.0467 88.4283 42.2333 88.0683 41.54C87.7083 40.8333 87.2083 40.2933 86.5683 39.92C85.9283 39.5467 85.1883 39.36 84.3483 39.36C83.5083 39.36 82.7616 39.5467 82.1083 39.92C81.4683 40.2933 80.9683 40.8333 80.6083 41.54C80.2483 42.2333 80.0683 43.0467 80.0683 43.98C80.0683 44.9133 80.2483 45.7333 80.6083 46.44C80.9683 47.1467 81.4683 47.6933 82.1083 48.08C82.7616 48.4533 83.5083 48.64 84.3483 48.64ZM101.771 51L98.6914 45.56H97.3714V51H94.5714V37.04H99.8114C100.891 37.04 101.811 37.2333 102.571 37.62C103.331 37.9933 103.898 38.5067 104.271 39.16C104.658 39.8 104.851 40.52 104.851 41.32C104.851 42.24 104.585 43.0733 104.051 43.82C103.518 44.5533 102.725 45.06 101.671 45.34L105.011 51H101.771ZM97.3714 43.46H99.7114C100.471 43.46 101.038 43.28 101.411 42.92C101.785 42.5467 101.971 42.0333 101.971 41.38C101.971 40.74 101.785 40.2467 101.411 39.9C101.038 39.54 100.471 39.36 99.7114 39.36H97.3714V43.46ZM124.33 41.36C124.33 42.1067 124.15 42.8067 123.79 43.46C123.443 44.1133 122.89 44.64 122.13 45.04C121.383 45.44 120.436 45.64 119.29 45.64H116.95V51H114.15V37.04H119.29C120.37 37.04 121.29 37.2267 122.05 37.6C122.81 37.9733 123.376 38.4867 123.75 39.14C124.136 39.7933 124.33 40.5333 124.33 41.36ZM119.17 43.38C119.943 43.38 120.516 43.2067 120.89 42.86C121.263 42.5 121.45 42 121.45 41.36C121.45 40 120.69 39.32 119.17 39.32H116.95V43.38H119.17ZM134.518 51L131.438 45.56H130.118V51H127.318V37.04H132.558C133.638 37.04 134.558 37.2333 135.318 37.62C136.078 37.9933 136.644 38.5067 137.018 39.16C137.404 39.8 137.598 40.52 137.598 41.32C137.598 42.24 137.331 43.0733 136.798 43.82C136.264 44.5533 135.471 45.06 134.418 45.34L137.758 51H134.518ZM130.118 43.46H132.458C133.218 43.46 133.784 43.28 134.158 42.92C134.531 42.5467 134.718 42.0333 134.718 41.38C134.718 40.74 134.531 40.2467 134.158 39.9C133.784 39.54 133.218 39.36 132.458 39.36H130.118V43.46ZM143.93 37.04V51H141.13V37.04H143.93ZM147.016 44C147.016 42.6267 147.323 41.4 147.936 40.32C148.563 39.2267 149.41 38.38 150.476 37.78C151.556 37.1667 152.763 36.86 154.096 36.86C155.656 36.86 157.023 37.26 158.196 38.06C159.37 38.86 160.19 39.9667 160.656 41.38H157.436C157.116 40.7133 156.663 40.2133 156.076 39.88C155.503 39.5467 154.836 39.38 154.076 39.38C153.263 39.38 152.536 39.5733 151.896 39.96C151.27 40.3333 150.776 40.8667 150.416 41.56C150.07 42.2533 149.896 43.0667 149.896 44C149.896 44.92 150.07 45.7333 150.416 46.44C150.776 47.1333 151.27 47.6733 151.896 48.06C152.536 48.4333 153.263 48.62 154.076 48.62C154.836 48.62 155.503 48.4533 156.076 48.12C156.663 47.7733 157.116 47.2667 157.436 46.6H160.656C160.19 48.0267 159.37 49.14 158.196 49.94C157.036 50.7267 155.67 51.12 154.096 51.12C152.763 51.12 151.556 50.82 150.476 50.22C149.41 49.6067 148.563 48.76 147.936 47.68C147.323 46.6 147.016 45.3733 147.016 44ZM166.848 39.3V42.8H171.548V45.02H166.848V48.72H172.148V51H164.048V37.02H172.148V39.3H166.848Z" fill="white"/>
<path d="M511.18 243.78H515.78V246H508.38V232.04H511.18V243.78ZM521.36 232.04V246H518.56V232.04H521.36ZM529.946 246.14C528.973 246.14 528.093 245.973 527.306 245.64C526.533 245.307 525.919 244.827 525.466 244.2C525.013 243.573 524.779 242.833 524.766 241.98H527.766C527.806 242.553 528.006 243.007 528.366 243.34C528.739 243.673 529.246 243.84 529.886 243.84C530.539 243.84 531.053 243.687 531.426 243.38C531.799 243.06 531.986 242.647 531.986 242.14C531.986 241.727 531.859 241.387 531.606 241.12C531.353 240.853 531.033 240.647 530.646 240.5C530.273 240.34 529.753 240.167 529.086 239.98C528.179 239.713 527.439 239.453 526.866 239.2C526.306 238.933 525.819 238.54 525.406 238.02C525.006 237.487 524.806 236.78 524.806 235.9C524.806 235.073 525.013 234.353 525.426 233.74C525.839 233.127 526.419 232.66 527.166 232.34C527.913 232.007 528.766 231.84 529.726 231.84C531.166 231.84 532.333 232.193 533.226 232.9C534.133 233.593 534.633 234.567 534.726 235.82H531.646C531.619 235.34 531.413 234.947 531.026 234.64C530.653 234.32 530.153 234.16 529.526 234.16C528.979 234.16 528.539 234.3 528.206 234.58C527.886 234.86 527.726 235.267 527.726 235.8C527.726 236.173 527.846 236.487 528.086 236.74C528.339 236.98 528.646 237.18 529.006 237.34C529.379 237.487 529.899 237.66 530.566 237.86C531.473 238.127 532.213 238.393 532.786 238.66C533.359 238.927 533.853 239.327 534.266 239.86C534.679 240.393 534.886 241.093 534.886 241.96C534.886 242.707 534.693 243.4 534.306 244.04C533.919 244.68 533.353 245.193 532.606 245.58C531.859 245.953 530.973 246.14 529.946 246.14ZM547.814 232.04V234.3H544.094V246H541.294V234.3H537.574V232.04H547.814ZM553.657 232.04V246H550.857V232.04H553.657ZM569.363 246H566.563L560.223 236.42V246H557.423V232.02H560.223L566.563 241.62V232.02H569.363V246ZM582.85 236.24C582.53 235.653 582.09 235.207 581.53 234.9C580.97 234.593 580.317 234.44 579.57 234.44C578.743 234.44 578.01 234.627 577.37 235C576.73 235.373 576.23 235.907 575.87 236.6C575.51 237.293 575.33 238.093 575.33 239C575.33 239.933 575.51 240.747 575.87 241.44C576.243 242.133 576.757 242.667 577.41 243.04C578.063 243.413 578.823 243.6 579.69 243.6C580.757 243.6 581.63 243.32 582.31 242.76C582.99 242.187 583.437 241.393 583.65 240.38H578.85V238.24H586.41V240.68C586.223 241.653 585.823 242.553 585.21 243.38C584.597 244.207 583.803 244.873 582.83 245.38C581.87 245.873 580.79 246.12 579.59 246.12C578.243 246.12 577.023 245.82 575.93 245.22C574.85 244.607 573.997 243.76 573.37 242.68C572.757 241.6 572.45 240.373 572.45 239C572.45 237.627 572.757 236.4 573.37 235.32C573.997 234.227 574.85 233.38 575.93 232.78C577.023 232.167 578.237 231.86 579.57 231.86C581.143 231.86 582.51 232.247 583.67 233.02C584.83 233.78 585.63 234.853 586.07 236.24H582.85Z" fill="white"/>
<defs>
<radialGradient id="paint0_radial_12_609" cx="0" cy="0" r="1" gradientUnits="userSpaceOnUse" gradientTransform="translate(730.5 -15) rotate(159.146) scale(865.18 373.619)">
<stop stop-color="#5EB1ED"/>
<stop offset="0.515625" stop-color="#913DFD"/>
<stop offset="0.927083" stop-color="#3DFDDA"/>
</radialGradient>
</defs>
</svg>
