<svg width="708" height="1479" viewBox="0 0 708 1479" fill="none" xmlns="http://www.w3.org/2000/svg">
<path d="M631.829 334.82L631.824 334.812C631.818 334.803 631.809 334.79 631.796 334.771C631.771 334.733 631.73 334.675 631.672 334.596C631.556 334.438 631.372 334.2 631.107 333.888L631.094 333.874L631.083 333.859C630.702 333.336 630.107 332.529 629.35 331.607L629.343 331.599L629.336 331.59C589.912 278.991 532.929 245.33 468.548 243.935L468.538 243.934V243.934C467.128 243.877 465.661 243.876 464.291 243.876H462.763C455.177 243.993 447.592 244.516 440.171 245.447L440.14 245.451H440.109C439.835 245.451 439.553 245.501 439.254 245.555C439.129 245.577 439.002 245.6 438.871 245.62L438.856 245.622L438.84 245.623C438.18 245.682 437.546 245.739 436.914 245.851L436.906 245.852L436.898 245.853C418.399 248.528 400.446 253.878 383.584 261.67L383.582 261.671C308.154 296.1 253.42 376.037 240.309 470.75L240.309 470.751C237.687 489.492 236.758 508.875 237.578 528.492C242.276 638.747 302.529 728.512 382.313 763.462C389.304 766.43 396.397 769.104 403.596 771.254L403.599 771.255C414.677 774.628 426.026 777.011 437.702 778.29L437.71 778.291L437.718 778.292L437.976 778.329C438.703 778.433 439.375 778.529 440.09 778.58L440.104 778.581L440.118 778.583C441.473 778.756 442.772 778.871 444.124 778.929L444.151 778.93L444.178 778.934C445.252 779.098 446.429 779.157 447.544 779.214L447.681 779.221C447.682 779.221 447.684 779.221 447.685 779.221M631.829 334.82L451.653 779.895C450.997 779.866 450.326 779.837 449.656 779.808C448.986 779.778 448.316 779.749 447.659 779.72L447.685 779.221M631.829 334.82L631.829 334.82L631.829 334.821L631.829 334.821L631.83 334.821L631.838 334.835L631.849 334.849C669.527 386.636 689.959 455.253 685.37 528.423L685.357 528.639L685.466 528.756L631.829 334.82ZM447.685 779.221C448.34 779.25 449.009 779.279 449.678 779.308C450.346 779.337 451.015 779.366 451.669 779.395L447.685 779.221Z" stroke="white"/>
<path d="M419.103 782.937C422.002 782.529 424.847 781.946 427.638 781.363H427.692C431.139 780.605 434.422 779.789 437.759 778.914C450.014 775.708 461.722 771.336 473.102 765.914C497.339 754.313 519.551 737.814 538.974 717.41C541.272 715.02 543.46 712.571 545.594 710.064C561.132 692.4 574.59 671.996 585.423 649.434C586.572 647.102 587.721 644.712 588.706 642.263C591.004 637.308 592.317 633.985 592.754 632.877V632.819C592.864 632.702 592.864 632.469 592.864 632.469C592.883 632.469 592.901 632.469 592.918 632.469L419.103 782.937ZM419.103 782.937C418.72 782.995 418.392 783.054 418.009 783.112M419.103 782.937L418.009 783.112M592.364 632.469V632.469V632.468V632.468V632.466L592.364 632.464L592.364 632.463V631.969H592.581C605.117 600.967 612.963 566.447 614.801 529.585L614.639 529.7L614.686 528.675C620.259 408.105 559.829 299.763 468.511 256.489C462.835 253.814 456.995 251.371 451.154 249.22L451.122 249.208L451.092 249.192C451.032 249.16 450.98 249.143 450.914 249.127C450.896 249.122 450.878 249.118 450.857 249.113C450.837 249.109 450.812 249.103 450.788 249.097C450.739 249.085 450.678 249.07 450.613 249.047L450.603 249.043C447.388 247.824 444.227 246.778 441.065 245.849L441.016 245.834L440.971 245.81C440.734 245.684 440.493 245.636 440.166 245.636H440.089L440.015 245.612C431.793 243.001 423.35 241.085 414.686 239.689H414.616H414.576L414.537 239.683C404.44 238.055 394.51 237.183 383.486 237.183C372.465 237.183 361.661 238.171 351.073 239.974C350.676 240.042 350.274 240.111 349.871 240.18C348.215 240.463 346.525 240.752 344.905 241.079L344.904 241.079C341.413 241.776 337.922 242.59 334.319 243.521C332.349 244.045 330.385 244.569 328.367 245.15L328.364 245.151C324.676 246.191 320.988 247.404 317.355 248.789C317.166 248.911 316.956 248.994 316.729 249.013C255.422 271.299 206.14 323.111 179.113 389.729L179.109 389.739L179.104 389.749C178.478 391.111 178.03 392.182 177.739 392.911C177.594 393.275 177.487 393.554 177.418 393.74C177.383 393.834 177.357 393.904 177.34 393.951L177.322 394.003L177.318 394.015L177.317 394.018L592.364 632.469ZM592.364 632.469L592.363 632.471C592.363 632.476 592.362 632.482 592.362 632.488C592.361 632.495 592.36 632.501 592.359 632.508C592.358 632.509 592.358 632.51 592.358 632.51L592.254 632.621V632.782C591.786 633.966 590.486 637.236 588.252 642.053L588.247 642.065L588.242 642.077C587.265 644.507 586.123 646.883 584.975 649.213L584.972 649.218C574.159 671.74 560.725 692.105 545.218 709.734L545.213 709.74C543.084 712.241 540.903 714.682 538.613 717.063L538.612 717.065C519.228 737.429 497.064 753.89 472.886 765.463C461.533 770.872 449.855 775.233 437.633 778.431L437.754 778.896L437.632 778.431C434.316 779.3 431.057 780.11 427.638 780.863H427.586L427.535 780.874C424.744 781.457 421.914 782.036 419.033 782.442L419.028 782.443C418.833 782.472 418.652 782.502 418.475 782.531C418.297 782.56 418.122 782.589 417.933 782.618L417.93 782.618C408.053 784.188 398.012 785.002 387.808 785.002C386.22 785.002 384.643 785.002 383.067 784.944L383.058 784.944H383.048H382.181C361.832 784.362 342.135 780.409 323.36 773.837L323.349 773.833C320.841 773.02 318.385 772.148 315.98 771.274L315.953 771.264L315.924 771.257C315.604 771.181 315.27 771.055 314.913 770.921C314.764 770.865 314.611 770.807 314.454 770.751C293.143 762.213 273.134 749.96 254.972 734.802C254.904 734.704 254.823 734.629 254.763 734.58C254.691 734.52 254.615 734.469 254.546 734.428C240.365 722.451 227.272 708.555 215.595 693.147L592.364 632.469ZM418.009 783.112C408.106 784.686 398.039 785.502 387.808 785.502M418.009 783.112L387.808 785.502M387.808 785.502C386.222 785.502 384.635 785.502 383.048 785.444L387.808 785.502ZM328.228 244.669C330.252 244.087 332.222 243.562 334.191 243.037L334.192 243.037C337.803 242.104 341.304 241.288 344.806 240.589C346.434 240.26 348.134 239.97 349.79 239.686C350.192 239.618 350.592 239.549 350.988 239.481L328.228 244.669Z" fill="url(#paint0_radial_34_734)" fill-opacity="0.2" stroke="white"/>
<g style="mix-blend-mode:multiply">
<path d="M510.848 350.494C501.106 366.207 487.217 385.039 469.736 403.288C446.736 427.272 417.468 450.25 382.866 464.091L382.866 464.091C368.241 469.964 352.636 474.208 336.05 476.243C296.172 481.075 264.51 477.58 240.127 470.314C217.217 463.397 200.601 452.999 189.802 442.789C184.402 437.684 180.462 432.631 177.916 428.09C175.384 423.574 174.253 419.605 174.389 416.612L174.411 416.547C174.441 416.46 174.486 416.33 174.546 416.158C174.665 415.815 174.846 415.304 175.087 414.638C175.57 413.305 176.297 411.349 177.275 408.86C179.23 403.882 182.185 396.77 186.184 388.244C194.183 371.19 206.354 348.484 223.043 325.869L223.043 325.869C245.814 294.972 276.959 264.292 316.902 248.939C317.127 248.92 317.336 248.837 317.522 248.715C321.156 247.33 324.844 246.118 328.532 245.077L328.532 245.078L328.545 245.074C328.893 244.965 329.242 244.854 329.592 244.742C330.579 244.428 331.571 244.111 332.569 243.856L332.573 243.855C332.693 243.823 332.806 243.792 332.915 243.762C333.432 243.621 333.853 243.506 334.349 243.462L334.39 243.458L334.43 243.448C338.033 242.517 341.526 241.703 345.017 241.006L345.018 241.005C346.638 240.679 348.328 240.39 349.984 240.107C350.386 240.038 350.786 239.969 351.183 239.901C362.258 238.157 373.115 237.459 383.591 237.634L383.595 237.634C402.254 237.808 419.714 240.832 435.648 245.658L435.719 245.679H435.793C436.054 245.679 436.399 245.806 436.789 245.984L436.819 245.998L436.851 246.007C448.312 249.496 459.063 253.916 468.722 258.801L468.726 258.803C473.303 261.067 477.665 263.565 481.819 266.011C486.401 268.859 491.311 272.173 496.441 275.952C506.832 283.887 514.837 291.971 520.075 299.131C522.694 302.711 524.614 306.05 525.797 309.014C526.797 311.52 527.26 313.731 527.194 315.583L527.049 316.518C526.609 319.344 525.007 323.897 522.276 329.737C519.551 335.564 515.72 342.637 510.848 350.494Z" stroke="white"/>
</g>
<g style="mix-blend-mode:soft-light">
<path d="M593.598 549.75L593.597 549.751C593.11 550.195 592.262 550.58 591.008 550.881C589.766 551.18 588.182 551.383 586.279 551.505C582.472 551.747 577.451 551.658 571.454 551.377C565.478 551.096 558.58 550.628 550.984 550.112C543.301 549.591 534.904 549.021 526.028 548.548C490.81 546.672 448.356 546.343 414.997 556.829C391.236 564.289 357.932 578.023 324.622 591.76C311.73 597.077 298.838 602.394 286.497 607.347C264.369 616.23 244.017 623.945 228.595 628.414C220.88 630.649 214.428 632.064 209.616 632.415C207.209 632.59 205.243 632.496 203.746 632.123C202.251 631.749 201.281 631.112 200.767 630.243C177.118 590.157 170.602 545.644 171.596 510.896C172.093 493.523 174.468 478.607 177.508 467.924C179.028 462.58 180.71 458.313 182.396 455.332C183.239 453.84 184.074 452.687 184.878 451.883C185.685 451.074 186.425 450.654 187.077 450.553L187.079 450.553C190.147 450.062 193.189 450.711 196.599 452.069C199.219 453.111 202.015 454.553 205.185 456.187C206.158 456.689 207.166 457.209 208.215 457.741C217.126 462.259 228.785 467.544 246.113 469.54C250.485 470.044 256.819 469.637 264.602 468.498C272.396 467.357 281.679 465.476 291.964 463.015C312.537 458.091 337.147 450.836 361.929 442.501C386.712 434.166 411.675 424.749 432.954 415.5C454.221 406.257 471.847 397.165 481.927 389.473L481.927 389.473C492.162 381.653 499.844 371.566 506.202 361.868C508.636 358.157 510.88 354.495 512.998 351.039C513.647 349.981 514.283 348.942 514.91 347.927C517.588 343.59 520.081 339.69 522.55 336.534C525.022 333.374 527.439 331.002 529.95 329.682C532.436 328.375 535.029 328.091 537.917 329.137C540.831 330.193 544.08 332.616 547.81 336.803C551.536 340.985 555.714 346.894 560.497 354.869C579.066 385.823 589.646 432.497 594.408 472.534C596.788 492.544 597.713 510.874 597.459 524.722C597.333 531.648 596.912 537.441 596.234 541.758C595.895 543.917 595.494 545.694 595.039 547.053C594.578 548.43 594.084 549.311 593.598 549.75ZM187 450.059L187 450.059L187 450.059Z" fill="white" fill-opacity="0.1"/>
<path d="M593.598 549.75L593.597 549.751C593.11 550.195 592.262 550.58 591.008 550.881C589.766 551.18 588.182 551.383 586.279 551.505C582.472 551.747 577.451 551.658 571.454 551.377C565.478 551.096 558.58 550.628 550.984 550.112C543.301 549.591 534.904 549.021 526.028 548.548C490.81 546.672 448.356 546.343 414.997 556.829C391.236 564.289 357.932 578.023 324.622 591.76C311.73 597.077 298.838 602.394 286.497 607.347C264.369 616.23 244.017 623.945 228.595 628.414C220.88 630.649 214.428 632.064 209.616 632.415C207.209 632.59 205.243 632.496 203.746 632.123C202.251 631.749 201.281 631.112 200.767 630.243C177.118 590.157 170.602 545.644 171.596 510.896C172.093 493.523 174.468 478.607 177.508 467.924C179.028 462.58 180.71 458.313 182.396 455.332C183.239 453.84 184.074 452.687 184.878 451.883C185.685 451.074 186.425 450.654 187.077 450.553L187.079 450.553C190.147 450.062 193.189 450.711 196.599 452.069C199.219 453.111 202.015 454.553 205.185 456.187C206.158 456.689 207.166 457.209 208.215 457.741C217.126 462.259 228.785 467.544 246.113 469.54C250.485 470.044 256.819 469.637 264.602 468.498C272.396 467.357 281.679 465.476 291.964 463.015C312.537 458.091 337.147 450.836 361.929 442.501C386.712 434.166 411.675 424.749 432.954 415.5C454.221 406.257 471.847 397.165 481.927 389.473L481.927 389.473C492.162 381.653 499.844 371.566 506.202 361.868C508.636 358.157 510.88 354.495 512.998 351.039C513.647 349.981 514.283 348.942 514.91 347.927C517.588 343.59 520.081 339.69 522.55 336.534C525.022 333.374 527.439 331.002 529.95 329.682C532.436 328.375 535.029 328.091 537.917 329.137C540.831 330.193 544.08 332.616 547.81 336.803C551.536 340.985 555.714 346.894 560.497 354.869C579.066 385.823 589.646 432.497 594.408 472.534C596.788 492.544 597.713 510.874 597.459 524.722C597.333 531.648 596.912 537.441 596.234 541.758C595.895 543.917 595.494 545.694 595.039 547.053C594.578 548.43 594.084 549.311 593.598 549.75ZM187 450.059L187 450.059L187 450.059Z" stroke="white"/>
</g>
<path d="M532.396 528.557C529.939 621.07 469.725 693.784 395.967 700.111C392.416 700.402 388.821 700.634 385.232 700.634C306.518 700.634 239.372 625.49 235.167 528.549C230.798 427.059 296.595 341.351 382.277 341.351C386.197 341.351 390.12 341.583 393.995 341.932C474.081 349.421 535.017 431.846 532.396 528.557Z" fill="black" fill-opacity="0.4" stroke="white"/>
<path d="M168.299 594.105L168.299 594.105C167.383 590.163 167.708 587.449 168.758 585.726C169.793 584.028 171.602 583.181 173.944 583.124C178.671 583.009 185.315 586.143 190.811 591.501C196.29 596.843 200.533 604.305 200.564 612.715C200.596 620.994 196.548 630.298 185.361 639.505C185.299 639.39 185.228 639.256 185.147 639.103C184.823 638.492 184.353 637.59 183.77 636.428C182.604 634.103 180.987 630.738 179.186 626.579C175.583 618.26 171.245 606.776 168.299 594.105Z" fill="black" fill-opacity="0.5" stroke="white"/>
<g style="mix-blend-mode:soft-light">
<path d="M464.406 243.878L464.419 243.88L464.432 243.88C545.634 247.544 597.579 293.838 629.243 339.261C645.075 361.974 655.83 384.46 662.626 401.269C666.024 409.672 668.432 416.655 669.99 421.535C670.769 423.976 671.335 425.89 671.707 427.193C671.892 427.845 672.029 428.343 672.12 428.679C672.128 428.711 672.137 428.742 672.144 428.771C672.074 428.8 671.994 428.832 671.905 428.868C671.489 429.035 670.873 429.271 670.077 429.543C668.486 430.087 666.179 430.776 663.327 431.35C657.622 432.498 649.748 433.185 641.061 431.348C623.732 427.683 603.005 413.939 589.834 373.29L589.359 373.444L589.834 373.29C576.051 330.779 539.804 297.704 509.537 275.522C496.373 265.875 484.322 258.275 475.723 252.853C474.431 252.038 473.218 251.273 472.09 250.557C467.75 247.803 464.729 245.811 463.396 244.576C463.065 244.27 462.875 244.042 462.788 243.888C462.85 243.871 462.938 243.854 463.057 243.842C463.362 243.811 463.805 243.819 464.406 243.878ZM462.745 243.792C462.745 243.792 462.746 243.795 462.746 243.799C462.745 243.794 462.744 243.792 462.745 243.792Z" stroke="white"/>
</g>
<path d="M605.566 468.721L605.566 468.721C599.263 386.543 560.547 331.341 523.411 296.691C504.845 279.368 486.673 267.18 473.141 259.323C466.715 255.591 461.335 252.836 457.454 250.97C461.119 252.203 466.059 254.024 471.945 256.579C485.132 262.304 503.062 271.714 522.018 286.448C559.923 315.91 601.949 366.673 618.364 451.889C633.572 530.853 611.445 600.168 585.496 649.762C572.523 674.558 558.598 694.416 547.918 708.074C543.13 714.196 538.995 719.072 535.89 722.587C538.061 719.493 540.801 715.439 543.933 710.488C551.876 697.934 562.344 679.607 572.446 656.513C592.65 610.325 611.401 545.05 605.566 468.721Z" stroke="white"/>
<path d="M615.63 454.575L615.631 454.576C624.213 468.251 625.892 489.349 623.826 506.201C622.794 514.62 620.833 521.92 618.373 526.659C617.139 529.033 615.808 530.712 614.452 531.589C613.133 532.443 611.788 532.545 610.39 531.761C604.137 528.245 600.753 520.853 599.399 511.796C598.048 502.756 598.74 492.177 600.523 482.479C602.305 472.777 605.17 464.006 608.13 458.579C609.622 455.844 611.09 454.05 612.387 453.351C613.014 453.013 613.564 452.951 614.057 453.117C614.564 453.287 615.101 453.728 615.63 454.575Z" fill="black" fill-opacity="0.5" stroke="white"/>
<path d="M358.571 699.252C337.146 694.331 314.104 682.449 290.563 659.68C293.699 661.814 298.226 664.745 303.9 668.012C315.417 674.643 331.666 682.661 350.583 688.203C381.66 697.307 419.976 699.732 456.325 678.304C446.718 684.681 434.412 691.398 420.099 696.058C402.26 701.866 381.308 704.475 358.571 699.252Z" stroke="white"/>
<g style="mix-blend-mode:soft-light" opacity="0.8">
<path d="M490.821 760.733L491.064 760.587V760.529C511.608 748.182 525.893 734.98 537.131 724.355C537.663 723.852 538.188 723.355 538.706 722.865C543.69 718.147 548.061 714.009 552.141 710.751C556.645 707.153 560.749 704.667 564.87 703.658C573.327 701.623 584.502 699.959 592.98 700.465C597.234 700.718 600.72 701.515 602.857 703.008C603.912 703.745 604.622 704.641 604.951 705.717C605.281 706.796 605.246 708.112 604.709 709.718C603.62 712.956 601.003 716.749 597.318 720.807C593.642 724.857 588.939 729.133 583.73 733.338C573.312 741.75 560.905 749.85 550.73 755.257C540.688 760.593 523.497 763.055 509.853 763.514C503.038 763.743 497.158 763.47 493.542 762.823C492.64 762.661 491.892 762.478 491.31 762.279C490.717 762.075 490.347 761.87 490.156 761.691C490.066 761.606 490.038 761.547 490.03 761.518C490.024 761.499 490.02 761.473 490.04 761.423C490.095 761.289 490.295 761.048 490.821 760.733Z" stroke="white"/>
</g>
<g style="mix-blend-mode:multiply" opacity="0.8">
<mask id="path-12-inside-1_34_734" fill="white">
<path d="M631.596 333.626C631.049 332.868 630.447 332.11 629.845 331.352C630.611 332.285 631.158 333.043 631.596 333.626Z"/>
</mask>
<path d="M631.596 333.626C631.049 332.868 630.447 332.11 629.845 331.352C630.611 332.285 631.158 333.043 631.596 333.626Z" fill="#B372EC"/>
<path d="M631.596 333.626L630.796 334.226L632.407 333.04L631.596 333.626ZM629.845 331.352L630.618 330.717L629.062 331.974L629.845 331.352ZM632.407 333.04C631.844 332.261 631.227 331.485 630.628 330.73L629.062 331.974C629.667 332.735 630.254 333.475 630.785 334.211L632.407 333.04ZM629.072 331.987C629.82 332.898 630.348 333.629 630.796 334.226L632.396 333.025C631.968 332.456 631.402 331.672 630.618 330.717L629.072 331.987Z" fill="white" mask="url(#path-12-inside-1_34_734)"/>
</g>
<path opacity="0.8" d="M222.27 325.171C205.508 342.772 194.061 359.873 186.818 372.574C214.958 314.197 260.911 269.232 316.889 248.883C317.117 248.864 317.326 248.781 317.515 248.658C321.148 247.273 324.836 246.061 328.524 245.02L328.524 245.02L328.537 245.017C328.885 244.908 329.235 244.797 329.585 244.685C330.571 244.371 331.564 244.054 332.561 243.799L332.566 243.798C332.685 243.766 332.798 243.735 332.907 243.705C333.424 243.564 333.845 243.449 334.342 243.405L334.383 243.401L334.422 243.391C338.026 242.46 341.518 241.646 345.009 240.949L345.01 240.948C346.631 240.622 348.321 240.333 349.976 240.05C350.379 239.981 350.78 239.912 351.178 239.843C361.766 238.041 372.57 237.052 383.592 237.052C394.615 237.052 404.546 237.924 414.642 239.553L414.682 239.559H414.722H414.811L468.736 243.93L468.75 243.931L468.765 243.931C527.15 245.249 579.406 273.103 618.078 317.51C611.248 310.707 601.956 302.461 590.056 293.994C590.009 293.954 589.964 293.927 589.935 293.912L589.919 293.878L589.813 293.802C563.115 274.759 523.274 254.731 468.924 247.37C468.428 247.251 467.861 247.18 467.331 247.114C467.078 247.083 466.833 247.052 466.608 247.018L466.597 247.016C458.493 245.966 450.063 245.208 441.415 244.741C440.568 244.622 439.832 244.622 439.027 244.622C437.979 244.564 436.879 244.564 435.85 244.564C422.427 244.039 408.351 244.389 393.511 245.615C390.165 245.848 386.873 246.199 383.582 246.667C305.925 255.72 254.287 291.406 222.27 325.171ZM222.27 325.171C222.27 325.171 222.271 325.171 222.271 325.171L222.633 325.515L222.27 325.171C222.27 325.171 222.27 325.171 222.27 325.171Z" stroke="white"/>
<g style="mix-blend-mode:multiply" opacity="0.8">
<path d="M473.218 775.086C543.008 760.257 588.134 729.081 605.372 715.365C601.414 719.389 597.35 723.233 593.149 726.882L593.13 726.898L593.112 726.917C592.953 727.087 592.797 727.219 592.586 727.397C592.54 727.436 592.492 727.476 592.441 727.52L592.434 727.526L592.427 727.532C582.87 736.319 573.057 743.868 563.533 748.972L563.486 748.997L563.445 749.032C563.235 749.211 562.974 749.356 562.738 749.46C562.706 749.469 562.67 749.483 562.631 749.503C562.578 749.531 562.518 749.575 562.466 749.638C532.911 767.8 499.555 778.472 464.462 779.519H463.813H463.796L463.78 779.52L417.932 782.551L417.909 782.553L417.887 782.557C408.01 784.127 397.969 784.941 387.765 784.941C386.177 784.941 384.599 784.941 383.024 784.883L383.014 784.882H383.005H382.137C361.788 784.3 342.091 780.347 323.317 773.775L323.317 773.775L323.306 773.772C320.798 772.958 318.342 772.086 315.937 771.212L315.909 771.202L315.881 771.196C315.56 771.12 315.226 770.994 314.87 770.859C314.719 770.803 314.564 770.744 314.405 770.688C278.817 757.429 258.6 738.351 254.943 734.761C254.872 734.653 254.784 734.571 254.72 734.518C254.648 734.459 254.572 734.407 254.503 734.367C242.109 723.899 230.547 711.967 220.034 698.84C233.532 711.586 271.783 744.974 323.514 765.443C341.492 772.626 361.174 778.177 382.065 780.806C396.591 782.734 411.884 783.202 427.562 781.801H427.594H427.615L427.635 781.8C428.353 781.741 429.056 781.667 429.746 781.595L429.844 781.584C430.495 781.516 431.134 781.448 431.773 781.393C431.776 781.393 431.778 781.393 431.781 781.393C431.898 781.394 432.075 781.395 432.259 781.326C436.286 780.977 440.203 780.512 444.117 779.991L445.091 779.905L446.076 779.817L446.088 779.816L446.099 779.815C455.523 778.53 464.562 776.896 473.216 775.087L473.218 775.086Z" stroke="white"/>
</g>
<path d="M508.307 256.48L508.829 256.503V256.447C537.203 257.931 566.271 274.598 588.185 291.241C599.199 299.606 608.386 307.949 614.74 314.318C617.918 317.503 620.384 320.19 622.015 322.136C622.831 323.111 623.431 323.891 623.805 324.45C623.985 324.718 624.102 324.921 624.168 325.062C624.08 325.128 623.955 325.21 623.789 325.306C623.453 325.499 622.982 325.733 622.381 325.994C621.183 326.517 619.502 327.14 617.44 327.774C613.318 329.041 607.697 330.341 601.404 330.964C588.803 332.212 573.61 330.734 562.328 320.955L562.328 320.955C559.43 318.445 555.971 315.519 552.194 312.324C540.899 302.768 526.752 290.801 516.211 280.322C512.698 276.829 509.592 273.509 507.132 270.505C504.666 267.495 502.871 264.83 501.95 262.644C501.019 260.433 501.053 258.895 501.91 257.932C502.805 256.926 504.772 256.32 508.307 256.48Z" fill="white" fill-opacity="0.01" stroke="white"/>
<g style="mix-blend-mode:multiply" opacity="0.5">
<path d="M314.367 636.013L314.367 636.013L314.367 636.006C314.786 631.23 318.782 627.547 325.833 626.944C332.873 626.342 342.849 628.847 354.875 636.369L354.886 636.376L354.896 636.382C363.096 640.976 368.445 646.85 370.01 651.805C370.785 654.26 370.624 656.454 369.473 658.196C368.311 659.955 366.083 661.339 362.55 662.011L362.55 662.011C355.336 663.385 342.583 663.179 331.977 659.434C326.676 657.563 321.957 654.824 318.726 651.005C315.512 647.206 313.74 642.305 314.367 636.013Z" stroke="white"/>
</g>
<path d="M328.426 652.698L328.434 652.706L328.442 652.714C334.005 658.084 343.321 660.706 356.247 660.708L371.84 660.709C372.883 660.709 373.776 660.618 374.51 660.425C375.242 660.233 375.846 659.931 376.271 659.484L376.295 659.458L376.316 659.429C377.064 658.379 377.531 656.855 377.761 654.916L377.763 654.905L377.763 654.893L382.471 589.86C389.196 591.897 397.297 592.91 406.764 592.911C423.096 592.913 437.189 589.929 449.026 583.94C460.843 577.961 470.51 569.943 478.018 559.887C485.517 549.842 490.969 538.365 494.375 525.461C498.004 512.333 499.819 498.729 499.82 484.651C499.822 471.766 498.237 460.296 495.056 450.247C492.1 440.191 487.32 431.677 480.711 424.716C474.32 417.509 465.885 412.115 455.426 408.522C444.963 404.691 432.474 402.782 417.97 402.78C412.985 402.78 407.213 403.017 400.654 403.493C394.098 403.73 387.315 404.086 380.308 404.562L359.298 405.986C352.3 406.223 345.868 406.341 340.001 406.341C338.73 406.34 337.499 406.874 336.315 407.864C335.004 408.708 334.416 410.212 334.416 412.193C334.415 415.751 334.302 419.069 334.077 422.148L334.076 422.166L334.076 422.185C334.075 425.265 333.962 428.705 333.736 432.504L333.736 432.518L333.736 432.533C333.735 436.082 333.51 440.348 333.058 445.335L333.057 445.345L333.057 445.356C332.83 450.111 332.491 456.175 332.038 463.548C331.586 470.679 330.907 479.358 330.003 489.585L330.003 489.585L330.002 489.595C329.323 499.585 328.418 511.596 327.287 525.631L327.287 525.632C326.381 537.05 325.476 548.231 324.571 559.174L324.571 559.174L324.571 559.184C323.891 570.126 323.213 580.235 322.534 589.511C321.855 598.79 321.289 606.88 320.836 613.78L320.835 613.788L320.835 613.796C320.609 620.458 320.495 625.342 320.494 628.444C320.493 638.99 323.111 647.102 328.426 652.698ZM401.387 458.019L401.403 458.018L401.419 458.016C405.018 457.542 408.273 457.307 411.185 457.307C422.656 457.308 430.37 460.036 434.52 465.326L434.527 465.335L434.535 465.344C438.946 470.453 441.192 478.048 441.191 488.213C441.191 492.702 440.741 498.03 439.839 504.199C438.941 510.335 437.147 516.234 434.456 521.899C431.776 527.54 427.981 532.357 423.066 536.354C418.433 540.07 412.226 541.952 404.396 541.951C401.704 541.951 398.671 541.833 395.298 541.596C392.285 541.142 389.166 540.47 385.941 539.579C387.059 524.023 387.955 509.167 388.629 495.012C389.299 480.939 389.858 468.948 390.308 459.037C394.213 458.587 397.905 458.248 401.387 458.019Z" stroke="white"/>
<path d="M315.688 638.428L315.696 638.436L315.704 638.444C321.267 643.814 330.583 646.436 343.508 646.438L359.102 646.439C360.145 646.439 361.038 646.348 361.772 646.155C362.504 645.963 363.108 645.66 363.533 645.214L363.557 645.188L363.578 645.159C364.326 644.109 364.793 642.585 365.023 640.646L365.025 640.635L365.025 640.623L369.733 575.59C376.458 577.627 384.559 578.64 394.026 578.641C410.358 578.643 424.451 575.659 436.288 569.67C448.105 563.691 457.772 555.673 465.28 545.617C472.779 535.572 478.231 524.095 481.637 511.191C485.266 498.063 487.081 484.459 487.082 470.381C487.084 457.496 485.499 446.026 482.318 435.977C479.362 425.921 474.582 417.407 467.973 410.446C461.582 403.239 453.147 397.845 442.688 394.252C432.225 390.421 419.736 388.512 405.232 388.51C400.247 388.51 394.475 388.747 387.916 389.223C381.36 389.46 374.577 389.816 367.57 390.292L346.56 391.716C339.562 391.953 333.13 392.071 327.263 392.07C325.992 392.07 324.761 392.604 323.577 393.594C322.266 394.438 321.678 395.942 321.678 397.923C321.677 401.481 321.564 404.799 321.339 407.878L321.338 407.896L321.338 407.915C321.337 410.995 321.224 414.435 320.998 418.234L320.998 418.248L320.998 418.263C320.997 421.812 320.772 426.078 320.32 431.065L320.319 431.075L320.319 431.086C320.092 435.841 319.753 441.905 319.3 449.278C318.848 456.409 318.169 465.088 317.265 475.315L317.265 475.315L317.264 475.325C316.585 485.315 315.68 497.326 314.549 511.361L314.549 511.362C313.643 522.78 312.738 533.961 311.833 544.904L311.833 544.904L311.832 544.914C311.153 555.856 310.475 565.965 309.796 575.241C309.117 584.52 308.551 592.61 308.098 599.51L308.097 599.518L308.097 599.526C307.87 606.188 307.757 611.072 307.756 614.174C307.755 624.72 310.373 632.832 315.688 638.428ZM388.649 443.749L388.665 443.748L388.681 443.746C392.28 443.272 395.535 443.037 398.447 443.037C409.918 443.038 417.631 445.766 421.782 451.056L421.789 451.065L421.797 451.074C426.208 456.183 428.454 463.778 428.453 473.943C428.453 478.432 428.003 483.76 427.101 489.929C426.203 496.065 424.409 501.964 421.718 507.629C419.038 513.27 415.243 518.087 410.328 522.084C405.695 525.8 399.488 527.682 391.658 527.681C388.965 527.681 385.933 527.563 382.56 527.326C379.547 526.872 376.428 526.2 373.203 525.309C374.321 509.753 375.217 494.897 375.891 480.742C376.56 466.669 377.12 454.678 377.57 444.767C381.475 444.317 385.167 443.978 388.649 443.749Z" fill="url(#paint1_radial_34_734)" fill-opacity="0.65" stroke="white"/>
<path d="M441 208.667C442.473 208.667 443.667 207.473 443.667 206C443.667 204.527 442.473 203.333 441 203.333C439.527 203.333 438.333 204.527 438.333 206C438.333 207.473 439.527 208.667 441 208.667ZM441 2.66666C442.473 2.66666 443.667 1.47275 443.667 1.16564e-07C443.667 -1.47276 442.473 -2.66667 441 -2.66667C439.527 -2.66667 438.333 -1.47276 438.333 -1.16564e-07C438.333 1.47275 439.527 2.66666 441 2.66666ZM441.5 206L441.5 2.18557e-08L440.5 -2.18557e-08L440.5 206L441.5 206Z" fill="white"/>
<path d="M441 1478.67C442.473 1478.67 443.667 1477.47 443.667 1476C443.667 1474.53 442.473 1473.33 441 1473.33C439.527 1473.33 438.333 1474.53 438.333 1476C438.333 1477.47 439.527 1478.67 441 1478.67ZM441 818.667C442.473 818.667 443.667 817.473 443.667 816C443.667 814.527 442.473 813.333 441 813.333C439.527 813.333 438.333 814.527 438.333 816C438.333 817.473 439.527 818.667 441 818.667ZM441.5 1476L441.5 816L440.5 816L440.5 1476L441.5 1476Z" fill="white"/>
<path d="M0.666667 527C0.666667 527.736 1.26362 528.333 2 528.333C2.73638 528.333 3.33333 527.736 3.33333 527C3.33333 526.264 2.73638 525.667 2 525.667C1.26362 525.667 0.666667 526.264 0.666667 527ZM114.667 527C114.667 527.736 115.264 528.333 116 528.333C116.736 528.333 117.333 527.736 117.333 527C117.333 526.264 116.736 525.667 116 525.667C115.264 525.667 114.667 526.264 114.667 527ZM2 527.25L116 527.25L116 526.75L2 526.75L2 527.25Z" fill="white"/>
<path d="M0.666667 494C0.666667 494.736 1.26362 495.333 2 495.333C2.73638 495.333 3.33333 494.736 3.33333 494C3.33333 493.264 2.73638 492.667 2 492.667C1.26362 492.667 0.666667 493.264 0.666667 494ZM114.667 494C114.667 494.736 115.264 495.333 116 495.333C116.736 495.333 117.333 494.736 117.333 494C117.333 493.264 116.736 492.667 116 492.667C115.264 492.667 114.667 493.264 114.667 494ZM2 494.25L116 494.25L116 493.75L2 493.75L2 494.25Z" fill="white"/>
<defs>
<radialGradient id="paint0_radial_34_734" cx="0" cy="0" r="1" gradientUnits="userSpaceOnUse" gradientTransform="translate(579.528 338.74) rotate(135.498) scale(594.475 694.663)">
<stop offset="0.0893935" stop-color="#5EB1ED"/>
<stop offset="0.523861" stop-color="#913DFD"/>
<stop offset="1" stop-color="#3DFDDA"/>
</radialGradient>
<radialGradient id="paint1_radial_34_734" cx="0" cy="0" r="1" gradientUnits="userSpaceOnUse" gradientTransform="translate(502.204 413.486) rotate(142.051) scale(291.993 399.027)">
<stop stop-color="#5EB1ED"/>
<stop offset="0.484517" stop-color="#913DFD"/>
<stop offset="0.927083" stop-color="#3DFDDA"/>
</radialGradient>
</defs>
</svg>
