<svg width="665" height="570" viewBox="0 0 665 570" fill="none" xmlns="http://www.w3.org/2000/svg">
<path d="M412.568 524.646C374.731 583.046 289.269 583.047 251.432 524.646L18.3874 164.95C-22.9947 101.078 22.8496 16.75 98.9554 16.75L565.045 16.75C641.15 16.75 686.995 101.078 645.613 164.95L412.568 524.646Z" fill="url(#paint0_radial_18_908)" fill-opacity="0.1"/>
<path d="M365.232 457.395C349.388 481.045 314.612 481.045 298.768 457.395L94.852 153.013C77.0477 126.437 96.0951 90.75 128.084 90.75L535.916 90.7501C567.905 90.7501 586.952 126.437 569.148 153.013L365.232 457.395Z" fill="url(#paint1_radial_18_908)" fill-opacity="0.1"/>
<path d="M437.889 58.5001C437.612 58.5001 437.389 58.7239 437.389 59.0001C437.389 59.2762 437.612 59.5001 437.889 59.5001L437.889 58.5001ZM556.243 59.0001L556.243 59.5001H556.243L556.243 59.0001ZM607.756 155.502L607.341 155.223L607.341 155.223L607.756 155.502ZM563.398 221.097C563.452 221.368 563.715 221.544 563.986 221.491L568.4 220.617C568.671 220.564 568.847 220.301 568.794 220.03C568.74 219.759 568.477 219.583 568.206 219.636L564.282 220.413L563.506 216.489C563.452 216.218 563.189 216.042 562.919 216.095C562.648 216.149 562.471 216.412 562.525 216.683L563.398 221.097ZM437.889 59.5001L556.243 59.5001L556.243 58.5001L437.889 58.5001L437.889 59.5001ZM607.341 155.223L563.473 220.722L564.304 221.278L608.172 155.78L607.341 155.223ZM556.243 59.5001C605.422 59.5002 634.708 114.362 607.341 155.223L608.172 155.78C635.984 114.254 606.222 58.5002 556.243 58.5001L556.243 59.5001Z" fill="white"/>
<path d="M459.415 384.279C459.569 384.05 459.508 383.739 459.279 383.585C459.05 383.431 458.739 383.492 458.585 383.721L459.415 384.279ZM382.925 497.031L382.51 496.752L382.925 497.031ZM279.804 496.655L279.387 496.932L279.387 496.932L279.804 496.655ZM205.599 384.01C205.329 383.955 205.065 384.13 205.01 384.401L204.115 388.811C204.06 389.081 204.235 389.345 204.505 389.4C204.776 389.455 205.04 389.28 205.095 389.01L205.891 385.089L209.811 385.885C210.081 385.94 210.345 385.765 210.4 385.495C210.455 385.224 210.28 384.96 210.01 384.905L205.599 384.01ZM458.585 383.721L382.51 496.752L383.34 497.31L459.415 384.279L458.585 383.721ZM280.221 496.379L205.917 384.224L205.083 384.776L279.387 496.932L280.221 496.379ZM382.51 496.752C358.029 533.126 304.436 532.931 280.221 496.379L279.387 496.932C303.996 534.077 358.461 534.276 383.34 497.31L382.51 496.752Z" fill="white"/>
<path d="M225.465 58.6465C225.66 58.8418 225.66 59.1584 225.465 59.3536L222.283 62.5356C222.088 62.7309 221.771 62.7309 221.576 62.5356C221.381 62.3404 221.381 62.0238 221.576 61.8285L224.404 59.0001L221.576 56.1717C221.381 55.9764 221.381 55.6598 221.576 55.4645C221.771 55.2693 222.088 55.2693 222.283 55.4645L225.465 58.6465ZM106.757 59.0001L106.757 59.5001H106.757L106.757 59.0001ZM55.2436 155.502L55.659 155.223L55.659 155.223L55.2436 155.502ZM99.5269 220.722C99.6805 220.951 99.6191 221.262 99.3897 221.416C99.1602 221.569 98.8497 221.508 98.696 221.278L99.5269 220.722ZM225.111 59.5001L106.757 59.5001L106.757 58.5001L225.111 58.5001L225.111 59.5001ZM55.659 155.223L99.5269 220.722L98.696 221.278L54.8282 155.78L55.659 155.223ZM106.757 59.5001C57.5779 59.5002 28.2921 114.362 55.659 155.223L54.8282 155.78C27.0163 114.254 56.7783 58.5002 106.757 58.5001L106.757 59.5001Z" fill="white"/>
<rect x="231.5" y="0.5" width="200" height="139" fill="url(#paint2_radial_18_908)" fill-opacity="0.1"/>
<path d="M259.2 60.14C258.227 60.14 257.347 59.9733 256.56 59.64C255.787 59.3067 255.173 58.8267 254.72 58.2C254.267 57.5733 254.033 56.8333 254.02 55.98H257.02C257.06 56.5533 257.26 57.0067 257.62 57.34C257.993 57.6733 258.5 57.84 259.14 57.84C259.793 57.84 260.307 57.6867 260.68 57.38C261.053 57.06 261.24 56.6467 261.24 56.14C261.24 55.7267 261.113 55.3867 260.86 55.12C260.607 54.8533 260.287 54.6467 259.9 54.5C259.527 54.34 259.007 54.1667 258.34 53.98C257.433 53.7133 256.693 53.4533 256.12 53.2C255.56 52.9333 255.073 52.54 254.66 52.02C254.26 51.4867 254.06 50.78 254.06 49.9C254.06 49.0733 254.267 48.3533 254.68 47.74C255.093 47.1267 255.673 46.66 256.42 46.34C257.167 46.0067 258.02 45.84 258.98 45.84C260.42 45.84 261.587 46.1933 262.48 46.9C263.387 47.5933 263.887 48.5667 263.98 49.82H260.9C260.873 49.34 260.667 48.9467 260.28 48.64C259.907 48.32 259.407 48.16 258.78 48.16C258.233 48.16 257.793 48.3 257.46 48.58C257.14 48.86 256.98 49.2667 256.98 49.8C256.98 50.1733 257.1 50.4867 257.34 50.74C257.593 50.98 257.9 51.18 258.26 51.34C258.633 51.4867 259.153 51.66 259.82 51.86C260.727 52.1267 261.467 52.3933 262.04 52.66C262.613 52.9267 263.107 53.3267 263.52 53.86C263.933 54.3933 264.14 55.0933 264.14 55.96C264.14 56.7067 263.947 57.4 263.56 58.04C263.173 58.68 262.607 59.1933 261.86 59.58C261.113 59.9533 260.227 60.14 259.2 60.14ZM277.748 50.36C277.748 51.1067 277.568 51.8067 277.207 52.46C276.861 53.1133 276.308 53.64 275.548 54.04C274.801 54.44 273.854 54.64 272.708 54.64H270.368V60H267.568V46.04H272.708C273.788 46.04 274.708 46.2267 275.468 46.6C276.228 46.9733 276.794 47.4867 277.168 48.14C277.554 48.7933 277.748 49.5333 277.748 50.36ZM272.588 52.38C273.361 52.38 273.934 52.2067 274.308 51.86C274.681 51.5 274.868 51 274.868 50.36C274.868 49 274.108 48.32 272.588 48.32H270.368V52.38H272.588ZM283.535 48.3V51.8H288.235V54.02H283.535V57.72H288.835V60H280.735V46.02H288.835V48.3H283.535ZM304.32 60H301.52L295.18 50.42V60H292.38V46.02H295.18L301.52 55.62V46.02H304.32V60ZM312.967 46.04C314.434 46.04 315.72 46.3267 316.827 46.9C317.947 47.4733 318.807 48.2933 319.407 49.36C320.02 50.4133 320.327 51.64 320.327 53.04C320.327 54.44 320.02 55.6667 319.407 56.72C318.807 57.76 317.947 58.5667 316.827 59.14C315.72 59.7133 314.434 60 312.967 60H308.087V46.04H312.967ZM312.867 57.62C314.334 57.62 315.467 57.22 316.267 56.42C317.067 55.62 317.467 54.4933 317.467 53.04C317.467 51.5867 317.067 50.4533 316.267 49.64C315.467 48.8133 314.334 48.4 312.867 48.4H310.887V57.62H312.867ZM339.369 50.36C339.369 51.1067 339.189 51.8067 338.829 52.46C338.482 53.1133 337.929 53.64 337.169 54.04C336.422 54.44 335.475 54.64 334.329 54.64H331.989V60H329.189V46.04H334.329C335.409 46.04 336.329 46.2267 337.089 46.6C337.849 46.9733 338.415 47.4867 338.789 48.14C339.175 48.7933 339.369 49.5333 339.369 50.36ZM334.209 52.38C334.982 52.38 335.555 52.2067 335.929 51.86C336.302 51.5 336.489 51 336.489 50.36C336.489 49 335.729 48.32 334.209 48.32H331.989V52.38H334.209ZM348.837 60.14C347.53 60.14 346.33 59.8333 345.237 59.22C344.143 58.6067 343.277 57.76 342.637 56.68C341.997 55.5867 341.677 54.3533 341.677 52.98C341.677 51.62 341.997 50.4 342.637 49.32C343.277 48.2267 344.143 47.3733 345.237 46.76C346.33 46.1467 347.53 45.84 348.837 45.84C350.157 45.84 351.357 46.1467 352.437 46.76C353.53 47.3733 354.39 48.2267 355.017 49.32C355.657 50.4 355.977 51.62 355.977 52.98C355.977 54.3533 355.657 55.5867 355.017 56.68C354.39 57.76 353.53 58.6067 352.437 59.22C351.343 59.8333 350.143 60.14 348.837 60.14ZM348.837 57.64C349.677 57.64 350.417 57.4533 351.057 57.08C351.697 56.6933 352.197 56.1467 352.557 55.44C352.917 54.7333 353.097 53.9133 353.097 52.98C353.097 52.0467 352.917 51.2333 352.557 50.54C352.197 49.8333 351.697 49.2933 351.057 48.92C350.417 48.5467 349.677 48.36 348.837 48.36C347.997 48.36 347.25 48.5467 346.597 48.92C345.957 49.2933 345.457 49.8333 345.097 50.54C344.737 51.2333 344.557 52.0467 344.557 52.98C344.557 53.9133 344.737 54.7333 345.097 55.44C345.457 56.1467 345.957 56.6933 346.597 57.08C347.25 57.4533 347.997 57.64 348.837 57.64ZM361.86 46.04V60H359.06V46.04H361.86ZM377.566 60H374.766L368.426 50.42V60H365.626V46.02H368.426L374.766 55.62V46.02H377.566V60ZM390.833 46.04V48.3H387.113V60H384.313V48.3H380.593V46.04H390.833ZM398.696 60.14C397.723 60.14 396.843 59.9733 396.056 59.64C395.283 59.3067 394.669 58.8267 394.216 58.2C393.763 57.5733 393.529 56.8333 393.516 55.98H396.516C396.556 56.5533 396.756 57.0067 397.116 57.34C397.489 57.6733 397.996 57.84 398.636 57.84C399.289 57.84 399.803 57.6867 400.176 57.38C400.549 57.06 400.736 56.6467 400.736 56.14C400.736 55.7267 400.609 55.3867 400.356 55.12C400.103 54.8533 399.783 54.6467 399.396 54.5C399.023 54.34 398.503 54.1667 397.836 53.98C396.929 53.7133 396.189 53.4533 395.616 53.2C395.056 52.9333 394.569 52.54 394.156 52.02C393.756 51.4867 393.556 50.78 393.556 49.9C393.556 49.0733 393.763 48.3533 394.176 47.74C394.589 47.1267 395.169 46.66 395.916 46.34C396.663 46.0067 397.516 45.84 398.476 45.84C399.916 45.84 401.083 46.1933 401.976 46.9C402.883 47.5933 403.383 48.5667 403.476 49.82H400.396C400.369 49.34 400.163 48.9467 399.776 48.64C399.403 48.32 398.903 48.16 398.276 48.16C397.729 48.16 397.289 48.3 396.956 48.58C396.636 48.86 396.476 49.2667 396.476 49.8C396.476 50.1733 396.596 50.4867 396.836 50.74C397.089 50.98 397.396 51.18 397.756 51.34C398.129 51.4867 398.649 51.66 399.316 51.86C400.223 52.1267 400.963 52.3933 401.536 52.66C402.109 52.9267 402.603 53.3267 403.016 53.86C403.429 54.3933 403.636 55.0933 403.636 55.96C403.636 56.7067 403.443 57.4 403.056 58.04C402.669 58.68 402.103 59.1933 401.356 59.58C400.609 59.9533 399.723 60.14 398.696 60.14ZM257.18 80.04V94H254.38V80.04H257.18ZM272.886 94H270.086L263.746 84.42V94H260.946V80.02H263.746L270.086 89.62V80.02H272.886V94ZM290.979 91.34H285.419L284.499 94H281.559L286.579 80.02H289.839L294.859 94H291.899L290.979 91.34ZM290.219 89.1L288.199 83.26L286.179 89.1H290.219ZM297.055 87C297.055 85.6267 297.362 84.4 297.975 83.32C298.602 82.2267 299.449 81.38 300.515 80.78C301.595 80.1667 302.802 79.86 304.135 79.86C305.695 79.86 307.062 80.26 308.235 81.06C309.409 81.86 310.229 82.9667 310.695 84.38H307.475C307.155 83.7133 306.702 83.2133 306.115 82.88C305.542 82.5467 304.875 82.38 304.115 82.38C303.302 82.38 302.575 82.5733 301.935 82.96C301.309 83.3333 300.815 83.8667 300.455 84.56C300.109 85.2533 299.935 86.0667 299.935 87C299.935 87.92 300.109 88.7333 300.455 89.44C300.815 90.1333 301.309 90.6733 301.935 91.06C302.575 91.4333 303.302 91.62 304.115 91.62C304.875 91.62 305.542 91.4533 306.115 91.12C306.702 90.7733 307.155 90.2667 307.475 89.6H310.695C310.229 91.0267 309.409 92.14 308.235 92.94C307.075 93.7267 305.709 94.12 304.135 94.12C302.802 94.12 301.595 93.82 300.515 93.22C299.449 92.6067 298.602 91.76 297.975 90.68C297.362 89.6 297.055 88.3733 297.055 87ZM323.587 80.04V82.3H319.867V94H317.067V82.3H313.347V80.04H323.587ZM329.43 80.04V94H326.63V80.04H329.43ZM345.736 80.04L340.616 94H337.216L332.096 80.04H335.096L338.936 91.14L342.756 80.04H345.736ZM351.215 80.04V94H348.415V80.04H351.215ZM364.482 80.04V82.3H360.762V94H357.962V82.3H354.242V80.04H364.482ZM370.325 80.04V94H367.525V80.04H370.325ZM376.891 82.3V85.8H381.591V88.02H376.891V91.72H382.191V94H374.091V80.02H382.191V82.3H376.891ZM390.555 94.14C389.582 94.14 388.702 93.9733 387.915 93.64C387.142 93.3067 386.529 92.8267 386.075 92.2C385.622 91.5733 385.389 90.8333 385.375 89.98H388.375C388.415 90.5533 388.615 91.0067 388.975 91.34C389.349 91.6733 389.855 91.84 390.495 91.84C391.149 91.84 391.662 91.6867 392.035 91.38C392.409 91.06 392.595 90.6467 392.595 90.14C392.595 89.7267 392.469 89.3867 392.215 89.12C391.962 88.8533 391.642 88.6467 391.255 88.5C390.882 88.34 390.362 88.1667 389.695 87.98C388.789 87.7133 388.049 87.4533 387.475 87.2C386.915 86.9333 386.429 86.54 386.015 86.02C385.615 85.4867 385.415 84.78 385.415 83.9C385.415 83.0733 385.622 82.3533 386.035 81.74C386.449 81.1267 387.029 80.66 387.775 80.34C388.522 80.0067 389.375 79.84 390.335 79.84C391.775 79.84 392.942 80.1933 393.835 80.9C394.742 81.5933 395.242 82.5667 395.335 83.82H392.255C392.229 83.34 392.022 82.9467 391.635 82.64C391.262 82.32 390.762 82.16 390.135 82.16C389.589 82.16 389.149 82.3 388.815 82.58C388.495 82.86 388.335 83.2667 388.335 83.8C388.335 84.1733 388.455 84.4867 388.695 84.74C388.949 84.98 389.255 85.18 389.615 85.34C389.989 85.4867 390.509 85.66 391.175 85.86C392.082 86.1267 392.822 86.3933 393.395 86.66C393.969 86.9267 394.462 87.3267 394.875 87.86C395.289 88.3933 395.495 89.0933 395.495 89.96C395.495 90.7067 395.302 91.4 394.915 92.04C394.529 92.68 393.962 93.1933 393.215 93.58C392.469 93.9533 391.582 94.14 390.555 94.14Z" fill="white"/>
<rect x="231.5" y="0.5" width="200" height="139" stroke="white"/>
<rect x="413.5" y="231.5" width="211" height="139" fill="url(#paint3_radial_18_908)" fill-opacity="0.1"/>
<path d="M448.32 291H445.52L439.18 281.42V291H436.38V277.02H439.18L445.52 286.62V277.02H448.32V291ZM454.887 279.3V282.8H459.587V285.02H454.887V288.72H460.187V291H452.087V277.02H460.187V279.3H454.887ZM482.392 277.04L478.492 291H475.192L472.572 281.06L469.832 291L466.552 291.02L462.792 277.04H465.792L468.252 287.88L471.092 277.04H474.212L476.892 287.82L479.372 277.04H482.392ZM493.785 277.04V291H490.985V277.04H493.785ZM509.492 291H506.692L500.352 281.42V291H497.552V277.02H500.352L506.692 286.62V277.02H509.492V291ZM525.799 277.04L520.679 291H517.279L512.159 277.04H515.159L518.999 288.14L522.819 277.04H525.799ZM531.278 279.3V282.8H535.978V285.02H531.278V288.72H536.578V291H528.478V277.02H536.578V279.3H531.278ZM544.942 291.14C543.969 291.14 543.089 290.973 542.302 290.64C541.529 290.307 540.916 289.827 540.462 289.2C540.009 288.573 539.776 287.833 539.762 286.98H542.762C542.802 287.553 543.002 288.007 543.362 288.34C543.736 288.673 544.242 288.84 544.882 288.84C545.536 288.84 546.049 288.687 546.422 288.38C546.796 288.06 546.982 287.647 546.982 287.14C546.982 286.727 546.856 286.387 546.602 286.12C546.349 285.853 546.029 285.647 545.642 285.5C545.269 285.34 544.749 285.167 544.082 284.98C543.176 284.713 542.436 284.453 541.862 284.2C541.302 283.933 540.816 283.54 540.402 283.02C540.002 282.487 539.802 281.78 539.802 280.9C539.802 280.073 540.009 279.353 540.422 278.74C540.836 278.127 541.416 277.66 542.162 277.34C542.909 277.007 543.762 276.84 544.722 276.84C546.162 276.84 547.329 277.193 548.222 277.9C549.129 278.593 549.629 279.567 549.722 280.82H546.642C546.616 280.34 546.409 279.947 546.022 279.64C545.649 279.32 545.149 279.16 544.522 279.16C543.976 279.16 543.536 279.3 543.202 279.58C542.882 279.86 542.722 280.267 542.722 280.8C542.722 281.173 542.842 281.487 543.082 281.74C543.336 281.98 543.642 282.18 544.002 282.34C544.376 282.487 544.896 282.66 545.562 282.86C546.469 283.127 547.209 283.393 547.782 283.66C548.356 283.927 548.849 284.327 549.262 284.86C549.676 285.393 549.882 286.093 549.882 286.96C549.882 287.707 549.689 288.4 549.302 289.04C548.916 289.68 548.349 290.193 547.602 290.58C546.856 290.953 545.969 291.14 544.942 291.14ZM562.81 277.04V279.3H559.09V291H556.29V279.3H552.57V277.04H562.81ZM572.333 291.14C571.026 291.14 569.826 290.833 568.733 290.22C567.639 289.607 566.773 288.76 566.133 287.68C565.493 286.587 565.173 285.353 565.173 283.98C565.173 282.62 565.493 281.4 566.133 280.32C566.773 279.227 567.639 278.373 568.733 277.76C569.826 277.147 571.026 276.84 572.333 276.84C573.653 276.84 574.853 277.147 575.933 277.76C577.026 278.373 577.886 279.227 578.513 280.32C579.153 281.4 579.473 282.62 579.473 283.98C579.473 285.353 579.153 286.587 578.513 287.68C577.886 288.76 577.026 289.607 575.933 290.22C574.839 290.833 573.639 291.14 572.333 291.14ZM572.333 288.64C573.173 288.64 573.913 288.453 574.553 288.08C575.193 287.693 575.693 287.147 576.053 286.44C576.413 285.733 576.593 284.913 576.593 283.98C576.593 283.047 576.413 282.233 576.053 281.54C575.693 280.833 575.193 280.293 574.553 279.92C573.913 279.547 573.173 279.36 572.333 279.36C571.493 279.36 570.746 279.547 570.093 279.92C569.453 280.293 568.953 280.833 568.593 281.54C568.233 282.233 568.053 283.047 568.053 283.98C568.053 284.913 568.233 285.733 568.593 286.44C568.953 287.147 569.453 287.693 570.093 288.08C570.746 288.453 571.493 288.64 572.333 288.64ZM589.756 291L586.676 285.56H585.356V291H582.556V277.04H587.796C588.876 277.04 589.796 277.233 590.556 277.62C591.316 277.993 591.882 278.507 592.256 279.16C592.642 279.8 592.836 280.52 592.836 281.32C592.836 282.24 592.569 283.073 592.036 283.82C591.502 284.553 590.709 285.06 589.656 285.34L592.996 291H589.756ZM585.356 283.46H587.696C588.456 283.46 589.022 283.28 589.396 282.92C589.769 282.547 589.956 282.033 589.956 281.38C589.956 280.74 589.769 280.247 589.396 279.9C589.022 279.54 588.456 279.36 587.696 279.36H585.356V283.46ZM601.188 291.14C600.215 291.14 599.335 290.973 598.548 290.64C597.775 290.307 597.162 289.827 596.708 289.2C596.255 288.573 596.022 287.833 596.008 286.98H599.008C599.048 287.553 599.248 288.007 599.608 288.34C599.982 288.673 600.488 288.84 601.128 288.84C601.782 288.84 602.295 288.687 602.668 288.38C603.042 288.06 603.228 287.647 603.228 287.14C603.228 286.727 603.102 286.387 602.848 286.12C602.595 285.853 602.275 285.647 601.888 285.5C601.515 285.34 600.995 285.167 600.328 284.98C599.422 284.713 598.682 284.453 598.108 284.2C597.548 283.933 597.062 283.54 596.648 283.02C596.248 282.487 596.048 281.78 596.048 280.9C596.048 280.073 596.255 279.353 596.668 278.74C597.082 278.127 597.662 277.66 598.408 277.34C599.155 277.007 600.008 276.84 600.968 276.84C602.408 276.84 603.575 277.193 604.468 277.9C605.375 278.593 605.875 279.567 605.968 280.82H602.888C602.862 280.34 602.655 279.947 602.268 279.64C601.895 279.32 601.395 279.16 600.768 279.16C600.222 279.16 599.782 279.3 599.448 279.58C599.128 279.86 598.968 280.267 598.968 280.8C598.968 281.173 599.088 281.487 599.328 281.74C599.582 281.98 599.888 282.18 600.248 282.34C600.622 282.487 601.142 282.66 601.808 282.86C602.715 283.127 603.455 283.393 604.028 283.66C604.602 283.927 605.095 284.327 605.508 284.86C605.922 285.393 606.128 286.093 606.128 286.96C606.128 287.707 605.935 288.4 605.548 289.04C605.162 289.68 604.595 290.193 603.848 290.58C603.102 290.953 602.215 291.14 601.188 291.14ZM435.7 318C435.7 316.627 436.007 315.4 436.62 314.32C437.247 313.227 438.093 312.38 439.16 311.78C440.24 311.167 441.447 310.86 442.78 310.86C444.34 310.86 445.707 311.26 446.88 312.06C448.053 312.86 448.873 313.967 449.34 315.38H446.12C445.8 314.713 445.347 314.213 444.76 313.88C444.187 313.547 443.52 313.38 442.76 313.38C441.947 313.38 441.22 313.573 440.58 313.96C439.953 314.333 439.46 314.867 439.1 315.56C438.753 316.253 438.58 317.067 438.58 318C438.58 318.92 438.753 319.733 439.1 320.44C439.46 321.133 439.953 321.673 440.58 322.06C441.22 322.433 441.947 322.62 442.76 322.62C443.52 322.62 444.187 322.453 444.76 322.12C445.347 321.773 445.8 321.267 446.12 320.6H449.34C448.873 322.027 448.053 323.14 446.88 323.94C445.72 324.727 444.353 325.12 442.78 325.12C441.447 325.12 440.24 324.82 439.16 324.22C438.093 323.607 437.247 322.76 436.62 321.68C436.007 320.6 435.7 319.373 435.7 318ZM459.212 325.14C457.905 325.14 456.705 324.833 455.612 324.22C454.518 323.607 453.652 322.76 453.012 321.68C452.372 320.587 452.052 319.353 452.052 317.98C452.052 316.62 452.372 315.4 453.012 314.32C453.652 313.227 454.518 312.373 455.612 311.76C456.705 311.147 457.905 310.84 459.212 310.84C460.532 310.84 461.732 311.147 462.812 311.76C463.905 312.373 464.765 313.227 465.392 314.32C466.032 315.4 466.352 316.62 466.352 317.98C466.352 319.353 466.032 320.587 465.392 321.68C464.765 322.76 463.905 323.607 462.812 324.22C461.718 324.833 460.518 325.14 459.212 325.14ZM459.212 322.64C460.052 322.64 460.792 322.453 461.432 322.08C462.072 321.693 462.572 321.147 462.932 320.44C463.292 319.733 463.472 318.913 463.472 317.98C463.472 317.047 463.292 316.233 462.932 315.54C462.572 314.833 462.072 314.293 461.432 313.92C460.792 313.547 460.052 313.36 459.212 313.36C458.372 313.36 457.625 313.547 456.972 313.92C456.332 314.293 455.832 314.833 455.472 315.54C455.112 316.233 454.932 317.047 454.932 317.98C454.932 318.913 455.112 319.733 455.472 320.44C455.832 321.147 456.332 321.693 456.972 322.08C457.625 322.453 458.372 322.64 459.212 322.64ZM484.655 311.04V325H481.855V315.92L478.115 325H475.995L472.235 315.92V325H469.435V311.04H472.615L477.055 321.42L481.495 311.04H484.655ZM491.223 313.3V316.8H495.923V319.02H491.223V322.72H496.523V325H488.423V311.02H496.523V313.3H491.223ZM508.633 311.04V325H505.833V311.04H508.633ZM524.34 325H521.54L515.2 315.42V325H512.4V311.02H515.2L521.54 320.62V311.02H524.34V325Z" fill="white"/>
<rect x="413.5" y="231.5" width="211" height="139" stroke="white"/>
<rect x="52.5001" y="231.5" width="211" height="139" fill="url(#paint4_radial_18_908)" fill-opacity="0.1"/>
<path d="M80.2001 291.14C79.2267 291.14 78.3467 290.973 77.5601 290.64C76.7867 290.307 76.1734 289.827 75.7201 289.2C75.2667 288.573 75.0334 287.833 75.0201 286.98H78.0201C78.0601 287.553 78.2601 288.007 78.6201 288.34C78.9934 288.673 79.5001 288.84 80.1401 288.84C80.7934 288.84 81.3067 288.687 81.6801 288.38C82.0534 288.06 82.2401 287.647 82.2401 287.14C82.2401 286.727 82.1134 286.387 81.8601 286.12C81.6067 285.853 81.2867 285.647 80.9001 285.5C80.5267 285.34 80.0067 285.167 79.3401 284.98C78.4334 284.713 77.6934 284.453 77.1201 284.2C76.5601 283.933 76.0734 283.54 75.6601 283.02C75.2601 282.487 75.0601 281.78 75.0601 280.9C75.0601 280.073 75.2667 279.353 75.6801 278.74C76.0934 278.127 76.6734 277.66 77.4201 277.34C78.1667 277.007 79.0201 276.84 79.9801 276.84C81.4201 276.84 82.5867 277.193 83.4801 277.9C84.3867 278.593 84.8867 279.567 84.9801 280.82H81.9001C81.8734 280.34 81.6667 279.947 81.2801 279.64C80.9067 279.32 80.4067 279.16 79.7801 279.16C79.2334 279.16 78.7934 279.3 78.4601 279.58C78.1401 279.86 77.9801 280.267 77.9801 280.8C77.9801 281.173 78.1001 281.487 78.3401 281.74C78.5934 281.98 78.9001 282.18 79.2601 282.34C79.6334 282.487 80.1534 282.66 80.8201 282.86C81.7267 283.127 82.4667 283.393 83.0401 283.66C83.6134 283.927 84.1067 284.327 84.5201 284.86C84.9334 285.393 85.1401 286.093 85.1401 286.96C85.1401 287.707 84.9467 288.4 84.5601 289.04C84.1734 289.68 83.6067 290.193 82.8601 290.58C82.1134 290.953 81.2267 291.14 80.2001 291.14ZM98.0676 277.04V279.3H94.3476V291H91.5476V279.3H87.8276V277.04H98.0676ZM109.671 288.34H104.111L103.191 291H100.251L105.271 277.02H108.531L113.551 291H110.591L109.671 288.34ZM108.911 286.1L106.891 280.26L104.871 286.1H108.911ZM124.307 291L119.227 284.78V291H116.427V277.04H119.227V283.3L124.307 277.04H127.687L121.927 283.96L127.847 291H124.307ZM133.489 279.3V282.8H138.189V285.02H133.489V288.72H138.789V291H130.689V277.02H138.789V279.3H133.489ZM157.599 277.04V279.3H153.879V291H151.079V279.3H147.359V277.04H157.599ZM167.122 291.14C165.815 291.14 164.615 290.833 163.522 290.22C162.428 289.607 161.562 288.76 160.922 287.68C160.282 286.587 159.962 285.353 159.962 283.98C159.962 282.62 160.282 281.4 160.922 280.32C161.562 279.227 162.428 278.373 163.522 277.76C164.615 277.147 165.815 276.84 167.122 276.84C168.442 276.84 169.642 277.147 170.722 277.76C171.815 278.373 172.675 279.227 173.302 280.32C173.942 281.4 174.262 282.62 174.262 283.98C174.262 285.353 173.942 286.587 173.302 287.68C172.675 288.76 171.815 289.607 170.722 290.22C169.628 290.833 168.428 291.14 167.122 291.14ZM167.122 288.64C167.962 288.64 168.702 288.453 169.342 288.08C169.982 287.693 170.482 287.147 170.842 286.44C171.202 285.733 171.382 284.913 171.382 283.98C171.382 283.047 171.202 282.233 170.842 281.54C170.482 280.833 169.982 280.293 169.342 279.92C168.702 279.547 167.962 279.36 167.122 279.36C166.282 279.36 165.535 279.547 164.882 279.92C164.242 280.293 163.742 280.833 163.382 281.54C163.022 282.233 162.842 283.047 162.842 283.98C162.842 284.913 163.022 285.733 163.382 286.44C163.742 287.147 164.242 287.693 164.882 288.08C165.535 288.453 166.282 288.64 167.122 288.64ZM192.831 281.24C192.511 280.653 192.071 280.207 191.511 279.9C190.951 279.593 190.297 279.44 189.551 279.44C188.724 279.44 187.991 279.627 187.351 280C186.711 280.373 186.211 280.907 185.851 281.6C185.491 282.293 185.311 283.093 185.311 284C185.311 284.933 185.491 285.747 185.851 286.44C186.224 287.133 186.737 287.667 187.391 288.04C188.044 288.413 188.804 288.6 189.671 288.6C190.737 288.6 191.611 288.32 192.291 287.76C192.971 287.187 193.417 286.393 193.631 285.38H188.831V283.24H196.391V285.68C196.204 286.653 195.804 287.553 195.191 288.38C194.577 289.207 193.784 289.873 192.811 290.38C191.851 290.873 190.771 291.12 189.571 291.12C188.224 291.12 187.004 290.82 185.911 290.22C184.831 289.607 183.977 288.76 183.351 287.68C182.737 286.6 182.431 285.373 182.431 284C182.431 282.627 182.737 281.4 183.351 280.32C183.977 279.227 184.831 278.38 185.911 277.78C187.004 277.167 188.217 276.86 189.551 276.86C191.124 276.86 192.491 277.247 193.651 278.02C194.811 278.78 195.611 279.853 196.051 281.24H192.831ZM202.262 279.3V282.8H206.962V285.02H202.262V288.72H207.562V291H199.462V277.02H207.562V279.3H202.262ZM220.607 277.04V279.3H216.887V291H214.087V279.3H210.367V277.04H220.607ZM85.5601 315.36C85.5601 316.107 85.3801 316.807 85.0201 317.46C84.6734 318.113 84.1201 318.64 83.3601 319.04C82.6134 319.44 81.6667 319.64 80.5201 319.64H78.1801V325H75.3801V311.04H80.5201C81.6001 311.04 82.5201 311.227 83.2801 311.6C84.0401 311.973 84.6067 312.487 84.9801 313.14C85.3667 313.793 85.5601 314.533 85.5601 315.36ZM80.4001 317.38C81.1734 317.38 81.7467 317.207 82.1201 316.86C82.4934 316.5 82.6801 316 82.6801 315.36C82.6801 314 81.9201 313.32 80.4001 313.32H78.1801V317.38H80.4001ZM95.028 325.14C93.7214 325.14 92.5214 324.833 91.428 324.22C90.3347 323.607 89.468 322.76 88.828 321.68C88.188 320.587 87.868 319.353 87.868 317.98C87.868 316.62 88.188 315.4 88.828 314.32C89.468 313.227 90.3347 312.373 91.428 311.76C92.5214 311.147 93.7214 310.84 95.028 310.84C96.348 310.84 97.548 311.147 98.628 311.76C99.7214 312.373 100.581 313.227 101.208 314.32C101.848 315.4 102.168 316.62 102.168 317.98C102.168 319.353 101.848 320.587 101.208 321.68C100.581 322.76 99.7214 323.607 98.628 324.22C97.5347 324.833 96.3347 325.14 95.028 325.14ZM95.028 322.64C95.868 322.64 96.608 322.453 97.248 322.08C97.888 321.693 98.388 321.147 98.748 320.44C99.108 319.733 99.288 318.913 99.288 317.98C99.288 317.047 99.108 316.233 98.748 315.54C98.388 314.833 97.888 314.293 97.248 313.92C96.608 313.547 95.868 313.36 95.028 313.36C94.188 313.36 93.4414 313.547 92.788 313.92C92.148 314.293 91.648 314.833 91.288 315.54C90.928 316.233 90.748 317.047 90.748 317.98C90.748 318.913 90.928 319.733 91.288 320.44C91.648 321.147 92.148 321.693 92.788 322.08C93.4414 322.453 94.188 322.64 95.028 322.64ZM108.051 311.04V325H105.251V311.04H108.051ZM123.758 325H120.958L114.618 315.42V325H111.818V311.02H114.618L120.958 320.62V311.02H123.758V325ZM137.025 311.04V313.3H133.305V325H130.505V313.3H126.785V311.04H137.025ZM144.888 325.14C143.914 325.14 143.034 324.973 142.248 324.64C141.474 324.307 140.861 323.827 140.408 323.2C139.954 322.573 139.721 321.833 139.708 320.98H142.708C142.748 321.553 142.948 322.007 143.308 322.34C143.681 322.673 144.188 322.84 144.828 322.84C145.481 322.84 145.994 322.687 146.368 322.38C146.741 322.06 146.928 321.647 146.928 321.14C146.928 320.727 146.801 320.387 146.548 320.12C146.294 319.853 145.974 319.647 145.588 319.5C145.214 319.34 144.694 319.167 144.028 318.98C143.121 318.713 142.381 318.453 141.808 318.2C141.248 317.933 140.761 317.54 140.348 317.02C139.948 316.487 139.748 315.78 139.748 314.9C139.748 314.073 139.954 313.353 140.368 312.74C140.781 312.127 141.361 311.66 142.108 311.34C142.854 311.007 143.708 310.84 144.668 310.84C146.108 310.84 147.274 311.193 148.168 311.9C149.074 312.593 149.574 313.567 149.668 314.82H146.588C146.561 314.34 146.354 313.947 145.968 313.64C145.594 313.32 145.094 313.16 144.468 313.16C143.921 313.16 143.481 313.3 143.148 313.58C142.828 313.86 142.668 314.267 142.668 314.8C142.668 315.173 142.788 315.487 143.028 315.74C143.281 315.98 143.588 316.18 143.948 316.34C144.321 316.487 144.841 316.66 145.508 316.86C146.414 317.127 147.154 317.393 147.728 317.66C148.301 317.927 148.794 318.327 149.208 318.86C149.621 319.393 149.828 320.093 149.828 320.96C149.828 321.707 149.634 322.4 149.248 323.04C148.861 323.68 148.294 324.193 147.548 324.58C146.801 324.953 145.914 325.14 144.888 325.14Z" fill="white"/>
<rect x="52.5001" y="231.5" width="211" height="139" stroke="white"/>
<defs>
<radialGradient id="paint0_radial_18_908" cx="0" cy="0" r="1" gradientUnits="userSpaceOnUse" gradientTransform="translate(18.9063 507.155) rotate(-51.713) scale(774.238 696.752)">
<stop stop-color="#5EB1ED"/>
<stop offset="0.549861" stop-color="#913DFD"/>
<stop offset="1" stop-color="#3DFDDA"/>
</radialGradient>
<radialGradient id="paint1_radial_18_908" cx="0" cy="0" r="1" gradientUnits="userSpaceOnUse" gradientTransform="translate(118.858 413.615) rotate(-50.7773) scale(516.456 468.144)">
<stop stop-color="#5EB1ED"/>
<stop offset="0.549861" stop-color="#913DFD"/>
<stop offset="1" stop-color="#3DFDDA"/>
</radialGradient>
<radialGradient id="paint2_radial_18_908" cx="0" cy="0" r="1" gradientUnits="userSpaceOnUse" gradientTransform="translate(638.5 -134) rotate(147.675) scale(512.411 366.443)">
<stop stop-color="#5EB1ED"/>
<stop offset="0.515625" stop-color="#913DFD"/>
<stop offset="0.927083" stop-color="#3DFDDA"/>
</radialGradient>
<radialGradient id="paint3_radial_18_908" cx="0" cy="0" r="1" gradientUnits="userSpaceOnUse" gradientTransform="translate(638.5 231) rotate(149.687) scale(475.511 323.232)">
<stop stop-color="#5EB1ED"/>
<stop offset="0.515625" stop-color="#913DFD"/>
<stop offset="0.927083" stop-color="#3DFDDA"/>
</radialGradient>
<radialGradient id="paint4_radial_18_908" cx="0" cy="0" r="1" gradientUnits="userSpaceOnUse" gradientTransform="translate(409 160.5) rotate(150.397) scale(451.426 306.861)">
<stop stop-color="#5EB1ED"/>
<stop offset="0.515625" stop-color="#913DFD"/>
<stop offset="0.927083" stop-color="#3DFDDA"/>
</radialGradient>
</defs>
</svg>
