<svg width="832" height="832" viewBox="0 0 832 832" fill="none" xmlns="http://www.w3.org/2000/svg">
<g style="mix-blend-mode:screen">
<path d="M445.116 418.239C445.116 418.239 425.417 412.575 420.763 382.589C420.763 382.589 420.264 412.659 393.749 417.573C393.749 417.573 417.271 429.984 418.601 452.557C418.601 452.557 420.43 425.153 445.116 418.239Z" fill="white"/>
<path style="mix-blend-mode:screen" d="M399.899 416.99C399.899 530.189 407.712 621.98 417.271 621.98C426.83 621.98 434.643 530.189 434.643 416.99C434.643 303.792 426.83 212 417.271 212C407.712 212 399.899 303.792 399.899 416.99Z" fill="url(#paint0_radial_7_604)" fill-opacity="0.5"/>
<path style="mix-blend-mode:screen" d="M417.271 429.068C520.173 429.068 603.542 423.654 603.542 416.99C603.542 410.326 520.173 404.912 417.271 404.912C314.369 404.912 231 410.326 231 416.99C231 423.654 314.369 429.068 417.271 429.068Z" fill="url(#paint1_radial_7_604)" fill-opacity="0.5"/>
<path style="mix-blend-mode:screen" d="M422.923 420.905C488.089 375.509 538.46 336.943 535.301 334.778C532.226 332.612 476.785 367.679 411.619 413.075C346.453 458.471 296.083 497.037 299.241 499.203C302.317 501.368 357.758 466.301 422.923 420.905Z" fill="url(#paint2_radial_7_604)" fill-opacity="0.5"/>
<path style="mix-blend-mode:screen" d="M413.594 422.268C348.342 376.905 297.077 337.772 299.092 334.861C301.107 331.951 355.638 366.365 420.89 411.728C486.143 457.092 537.407 496.225 535.393 499.135C533.378 502.046 478.847 467.631 413.594 422.268Z" fill="url(#paint3_radial_7_604)" fill-opacity="0.5"/>
</g>
<circle cx="416" cy="416" r="416" fill="url(#paint4_radial_7_604)"/>
<path d="M512.899 424.587C512.117 436.958 509.321 448.534 504.961 458.939C503.563 462.275 502.017 465.512 500.265 468.609C500.265 468.629 500.246 468.629 500.246 468.629C496.743 474.983 492.587 480.762 487.947 485.845C487.929 485.865 487.835 485.944 487.761 486.004C485.73 488.228 483.624 490.313 481.406 492.239C481.332 492.318 481.257 492.378 481.164 492.457C478.034 495.178 474.735 497.62 471.288 499.785C471.195 499.864 471.083 499.924 470.99 499.963C470.99 499.963 470.971 499.963 470.971 499.983C460.871 506.198 449.466 509.852 437.465 510.209H437.242C436.701 510.229 436.161 510.229 435.621 510.229C434.782 510.229 433.925 510.209 433.086 510.19C432.639 510.17 432.173 510.15 431.726 510.13C431.335 510.11 430.906 510.09 430.515 510.031C430.049 510.011 429.601 509.971 429.136 509.912C428.856 509.892 428.595 509.852 428.316 509.812C424.328 509.375 420.452 508.561 416.669 507.41C414.209 506.675 411.787 505.762 409.401 504.749C382.157 492.815 361.603 462.176 360 424.567C359.721 417.875 360.038 411.263 360.932 404.869C365.404 372.562 384.077 345.279 409.83 333.523C415.588 330.863 421.719 329.036 428.036 328.122C428.26 328.083 428.483 328.063 428.707 328.043C428.837 328.023 429.005 327.983 429.154 327.983C431.689 327.666 434.279 327.487 436.869 327.447H437.391C437.857 327.447 438.36 327.447 438.844 327.467C460.834 327.944 480.288 339.441 493.743 357.391C494.004 357.709 494.209 357.987 494.339 358.166C494.525 358.384 494.6 358.503 494.6 358.503C507.458 376.176 514.427 399.587 512.862 424.547L512.899 424.587Z" fill="url(#paint5_linear_7_604)"/>
<path d="M440.413 510.012L437.468 510.211H437.245L421.629 511.243H421.293L414.361 511.72H414.268L409.721 512.017H409.423V511.7V510.29V507.907V504.73L409.684 402.745L409.852 333.524V328.719L409.87 325.284V325.105L420.473 325.959H420.511L438.885 327.448V327.528V328.957V329.374L438.922 331.32V332.273V332.512L439.313 382.015L440.301 499.786L440.357 505.405V505.961V506.18V508.364V509.377V510.032L440.413 510.012Z" fill="url(#paint6_linear_7_604)"/>
<path d="M488.843 424.59C488.246 437.338 485.544 449.272 481.202 459.975H481.184C481.184 459.975 481.184 460.055 481.146 460.094C481.146 460.094 481.146 460.101 481.146 460.114C480.997 460.491 480.55 461.623 479.767 463.311C479.432 464.145 479.041 464.959 478.649 465.754C474.96 473.438 470.375 480.388 465.083 486.405C464.356 487.258 463.611 488.092 462.828 488.907C456.213 495.857 448.647 501.476 440.392 505.427C436.516 507.274 432.528 508.763 428.354 509.856C427.217 510.153 426.099 510.431 424.925 510.69H424.906C423.956 510.888 422.987 511.087 421.999 511.226C421.869 511.246 421.757 511.265 421.627 511.285C418.254 511.821 414.825 512.099 411.34 512.099C410.8 512.099 410.259 512.099 409.719 512.08H409.421C402.47 511.881 395.743 510.531 389.332 508.287C388.475 508.009 387.637 507.711 386.817 507.413C386.649 507.373 386.463 507.294 386.295 507.234C379.009 504.316 372.17 500.126 365.964 494.943C365.946 494.903 365.89 494.864 365.852 494.844C361.007 490.753 356.535 486.008 352.547 480.745C341.329 465.813 333.856 446.393 332.515 424.63C331.508 408.328 334.061 392.621 339.484 378.701C339.484 378.701 339.67 378.165 340.099 377.232C349.323 354.496 366.151 336.803 387.096 329.198C387.152 329.198 387.208 329.178 387.264 329.139C388.512 328.662 389.78 328.245 391.047 327.888C391.736 327.689 392.407 327.51 393.078 327.332C394.308 327.014 395.501 326.736 396.693 326.498C397.383 326.359 398.109 326.239 398.799 326.12C402.414 325.505 406.104 325.167 409.868 325.167C413.632 325.167 417.024 325.465 420.471 326.021H420.509C423.471 326.498 426.36 327.153 429.174 328.046C429.304 328.046 429.416 328.066 429.528 328.126C430.609 328.444 431.689 328.801 432.789 329.218C432.845 329.238 432.901 329.238 432.975 329.278C434.969 330.012 436.963 330.846 438.901 331.76C470.077 346.533 490.687 383.507 488.787 424.63L488.843 424.59Z" fill="url(#paint7_linear_7_604)"/>
<g style="mix-blend-mode:multiply" opacity="0.2">
<path d="M458.935 352.386C458.32 356.337 451.295 369.582 439.368 382.032C431.523 390.213 421.535 398.057 409.72 402.783C404.726 404.788 399.396 406.238 393.731 406.933C380.128 408.581 369.32 407.389 360.99 404.907C345.337 400.181 338.255 390.69 338.479 386.42C338.479 386.42 343.697 370.873 355.083 355.444C362.853 344.9 373.494 334.415 387.153 329.173C387.209 329.173 387.265 329.153 387.321 329.114C388.57 328.637 389.837 328.22 391.104 327.863C391.551 327.724 392.017 327.565 392.483 327.446C392.706 327.386 392.893 327.327 393.116 327.307C394.346 326.989 395.539 326.711 396.732 326.473C397.421 326.334 398.148 326.215 398.837 326.095C402.62 325.5 406.329 325.261 409.906 325.321C416.28 325.381 422.243 326.413 427.684 328.061C427.815 328.061 427.964 328.121 428.094 328.18C432.007 329.372 435.678 330.881 438.977 332.549C440.542 333.323 442.033 334.177 443.449 335.011C445.015 335.984 446.692 337.116 448.443 338.407C455.543 343.828 459.401 349.467 458.953 352.406L458.935 352.386Z" fill="#6F61D9"/>
</g>
<g style="mix-blend-mode:soft-light">
<path d="M347.486 459.304C350.792 464.895 398.218 441.417 420.652 434.374C443.312 427.251 478.381 434.812 481.548 431.927C484.733 429.042 482.993 386.484 470.305 365.335C457.252 343.569 457.148 366.489 443.294 377.073C429.632 387.499 374.827 405.664 363.097 404.311C351.349 402.958 347.294 397.149 342.943 397.845C338.592 398.521 331.335 431.927 347.486 459.304V459.304Z" fill="white" fill-opacity="0.7"/>
</g>
<path d="M460.758 424.587C459.92 456.159 439.365 481.02 414.134 483.184C412.922 483.283 411.692 483.363 410.463 483.363C383.535 483.363 360.614 457.668 359.179 424.587C357.689 389.956 380.144 360.648 409.456 360.648C410.798 360.648 412.14 360.727 413.463 360.846C440.856 363.408 461.653 391.585 460.758 424.587V424.587Z" fill="url(#paint8_linear_7_604)"/>
<path d="M460.761 424.586C459.922 456.159 439.368 481.019 414.136 483.184C388.886 481.039 368.015 456.178 366.822 424.586C365.574 391.584 386.091 363.387 413.465 360.846C440.859 363.407 461.655 391.584 460.761 424.586Z" fill="url(#paint9_linear_7_604)"/>
<path d="M336.408 446.947C333.874 436.045 358.173 449.826 342.334 462.634C342.334 462.634 338.42 455.604 336.408 446.947Z" fill="white"/>
<g style="mix-blend-mode:soft-light">
<path d="M437.446 327.449C430.757 326.793 470.635 342.897 479.99 371.749C488.991 399.529 508.389 390.693 508.389 390.693C508.389 390.693 492.904 329.951 437.446 327.449Z" fill="white"/>
</g>
<g style="mix-blend-mode:multiply" opacity="0.6">
<path d="M504.942 458.939C504.29 461.262 502.631 464.677 500.246 468.609C500.246 468.629 500.227 468.629 500.227 468.629C496.78 474.407 491.841 481.218 486.363 487.215L486.288 487.294C484.686 489.042 483.064 490.69 481.406 492.258C481.331 492.338 481.257 492.397 481.164 492.477C477.903 495.475 474.548 498.057 471.287 499.804C471.194 499.883 471.082 499.943 470.989 499.983C470.989 499.983 470.97 499.983 470.97 500.003C460.218 505.662 448.124 508.243 440.409 509.375C436.906 509.891 434.297 510.11 433.104 510.209C432.62 510.229 432.34 510.249 432.34 510.249C432.098 510.209 431.893 510.189 431.744 510.13C431.483 510.09 431.297 510.01 431.204 509.971C430.477 509.454 434.39 508.779 440.409 506.178C450.938 501.69 468.045 491.365 478.648 465.73C478.648 465.73 499.649 454.848 504.606 455.801C505.445 455.96 505.519 457.092 504.96 458.939H504.942Z" fill="#7345DE"/>
</g>
<path d="M432.678 329.136C432.678 329.136 478.837 340.295 490.036 398.436C500.416 452.328 459.829 493.034 459.829 493.034C459.829 493.034 489.31 456.14 485.341 404.214C481.054 348.337 432.697 329.156 432.697 329.156L432.678 329.136Z" fill="#64ECCD"/>
<path d="M489.083 399.293C486.008 394.369 478.274 420.877 487.07 425.822C491.356 428.224 494.99 408.705 489.083 399.293V399.293Z" fill="white"/>
<g style="mix-blend-mode:soft-light" opacity="0.5">
<path d="M481.127 460.113C480.978 460.49 480.531 461.622 479.748 463.31C477.531 468.115 472.723 477.309 465.064 486.403C458.821 493.83 450.641 501.177 440.373 505.982C436.869 507.61 433.142 508.961 429.155 509.934C428.26 510.132 427.384 510.351 426.471 510.509C426.452 510.529 426.397 510.529 426.341 510.529C424.943 510.807 423.49 511.046 421.999 511.204C421.775 511.244 421.533 511.264 421.291 511.304C421.086 511.324 420.899 511.343 420.694 511.363C418.533 511.562 416.39 511.701 414.358 511.76H414.265C412.588 511.8 411.004 511.78 409.42 511.741C400.55 511.423 393.003 509.695 386.816 507.392C386.648 507.352 386.462 507.273 386.294 507.213C374.088 502.666 367.175 496.113 365.964 494.922C365.945 494.882 365.889 494.842 365.852 494.823C365.796 494.743 365.777 494.723 365.777 494.723C364.044 493.214 374.219 500.72 389.518 505.089C395.351 506.756 402.19 507.988 409.439 507.948C411.824 507.928 414.247 507.769 416.706 507.432C417.34 507.332 418.011 507.253 418.644 507.134C426.602 505.784 433.832 503.162 440.317 499.787C465.53 486.681 479.916 462.178 481.109 460.113H481.127Z" fill="white"/>
</g>
<path d="M376.622 467.896C376.622 467.896 413.556 496.431 442.515 469.485C442.515 469.485 410.817 502.844 376.622 467.896V467.896Z" fill="#64E5CD"/>
<g style="mix-blend-mode:multiply" opacity="0.5">
<path d="M360.6 404.732C362.649 415.276 370.569 381.182 402.994 370.459C435.884 359.578 459.085 406.778 459.085 406.778C459.085 406.778 453.755 360.452 408.193 360.432C372.582 360.432 360.6 404.732 360.6 404.732V404.732Z" fill="#6A2CAE"/>
</g>
<g style="mix-blend-mode:soft-light" opacity="0.8">
<path d="M446.34 503.517C443.358 505.304 459.999 505.622 466.913 501.948C473.863 498.255 483.852 490.888 485.38 486.341C486.908 481.774 477.385 482.667 471.609 484.057C465.85 485.467 460.39 495.078 446.34 503.497V503.517Z" fill="white"/>
</g>
<path d="M487.11 448.518C481.538 446.711 473.767 458.367 477.774 467.998C481.706 477.509 499.819 452.649 487.11 448.518Z" fill="url(#paint10_linear_7_604)"/>
<g style="mix-blend-mode:multiply" opacity="0.7">
<path d="M478.391 456.737C477.869 463.786 486.237 464.203 489.442 460.529C492.666 456.836 492.572 448.516 486.386 448.357C480.199 448.178 478.391 456.737 478.391 456.737Z" fill="#471C93"/>
</g>
<path d="M476.677 462.814C478.503 458.584 483.385 463.787 486.385 464.005C489.386 464.243 484.205 471.154 480.758 470.141C477.291 469.128 476.677 462.814 476.677 462.814Z" fill="#64ECCD"/>
<path d="M468.572 451.528C462.963 449.76 457.354 458.16 459.72 463.779C462.068 469.359 478.337 454.605 468.572 451.528Z" fill="url(#paint11_linear_7_604)"/>
<g style="mix-blend-mode:multiply" opacity="0.7">
<path d="M466.108 451.293C462.232 452.405 460.927 458.243 462.455 459.971C463.965 461.678 471.363 459.593 471.642 455.642C471.922 451.67 467.636 450.856 466.108 451.313V451.293Z" fill="#5537AD"/>
</g>
<path d="M459.141 461.794C460.166 456.632 462.253 461.794 465.272 462.37C468.272 462.946 459.327 468.665 459.141 461.794Z" fill="#64ECCD"/>
<path d="M373.379 377.399C368.832 375.87 364.732 382.86 366.856 387.605C368.981 392.331 381.298 380.06 373.379 377.399Z" fill="url(#paint12_linear_7_604)"/>
<g style="mix-blend-mode:multiply" opacity="0.7">
<path d="M371.383 377.184C368.346 378.078 367.563 382.963 368.868 384.432C370.153 385.881 375.949 384.194 376.005 380.878C376.042 377.542 372.613 376.847 371.402 377.204L371.383 377.184Z" fill="#471C93"/>
</g>
<path d="M366.315 385.943C366.912 381.614 368.794 385.963 371.235 386.479C373.657 386.995 366.763 391.721 366.315 385.943Z" fill="#5AEEE9"/>
<g style="mix-blend-mode:multiply" opacity="0.8">
<path d="M494.376 358.187C494.19 357.929 493.985 357.671 493.78 357.412C494.041 357.73 494.227 357.988 494.376 358.187Z" fill="#B372EC"/>
</g>
<g style="mix-blend-mode:multiply" opacity="0.8">
<path d="M493.798 357.41C492.084 355.246 487.63 350.162 480.12 344.821C480.101 344.801 480.064 344.801 480.046 344.761C470.97 338.288 457.423 331.477 438.937 328.975C438.695 328.916 438.415 328.896 438.154 328.856C435.396 328.499 432.527 328.24 429.582 328.082C429.303 328.042 429.061 328.042 428.781 328.042C428.427 328.022 428.054 328.022 427.7 328.022C423.135 327.843 418.345 327.962 413.295 328.379C412.159 328.459 411.041 328.578 409.923 328.737C383.517 331.815 365.963 343.947 355.08 355.424C346.154 364.797 341.663 373.752 340.154 377.187C349.378 354.451 366.205 336.759 387.151 329.154C387.207 329.154 387.263 329.134 387.318 329.094C388.567 328.618 389.834 328.201 391.101 327.843C391.549 327.704 392.014 327.545 392.48 327.426C392.704 327.367 392.89 327.307 393.114 327.287C394.344 326.97 395.536 326.692 396.729 326.453C397.419 326.314 398.145 326.195 398.835 326.076C402.45 325.46 406.14 325.123 409.904 325.123C413.668 325.123 417.06 325.421 420.507 325.977H420.544L438.918 327.466C460.908 327.962 480.344 339.479 493.817 357.43L493.798 357.41Z" fill="url(#paint13_linear_7_604)"/>
</g>
<g style="mix-blend-mode:multiply" opacity="0.8">
<path d="M487.747 486.026C485.716 488.25 483.61 490.335 481.393 492.261C481.318 492.341 481.244 492.4 481.15 492.48C477.889 495.478 474.535 498.059 471.274 499.807C471.181 499.886 471.069 499.946 470.976 499.986C470.976 499.986 470.957 499.986 470.957 500.005C460.857 506.221 449.452 509.874 437.452 510.232H437.228L421.612 511.264C418.239 511.8 414.81 512.078 411.325 512.078C410.785 512.078 410.245 512.078 409.704 512.059H409.406C402.455 511.86 395.728 510.51 389.318 508.266C388.46 507.988 387.622 507.69 386.802 507.392C386.634 507.352 386.448 507.273 386.28 507.213C374.074 502.666 367.161 496.114 365.95 494.922C365.931 494.882 365.875 494.843 365.838 494.823C360.993 490.732 356.52 485.987 352.532 480.724C353.241 481.419 367.925 496.57 389.504 505.109C395.616 507.551 402.306 509.437 409.406 510.331C414.344 510.986 419.543 511.145 424.873 510.669H424.892C425.376 510.629 425.842 510.569 426.308 510.53C426.364 510.53 426.401 510.53 426.438 510.51C427.817 510.391 429.159 510.232 430.501 510.053C430.724 510.033 430.948 510.013 431.172 509.993C434.377 509.557 437.452 509.001 440.396 508.385C465.534 503.044 481.262 491.467 486.275 487.317L486.349 487.238C487.002 486.682 487.468 486.284 487.728 486.046L487.747 486.026Z" fill="#B372EC"/>
</g>
<path d="M452.39 331.74C442.719 331.303 462.807 347.189 470.671 354C478.461 360.751 491.598 356.005 492.027 355.33C492.437 354.675 471.938 332.614 452.39 331.72V331.74Z" fill="white"/>
<g style="mix-blend-mode:multiply" opacity="0.5">
<path d="M386.162 461.154C385.288 469.927 397.813 471.156 402.774 470.211C407.677 469.279 405.82 464.302 400.2 461.153C391.969 456.004 386.468 457.674 386.162 461.154Z" fill="#B66757"/>
</g>
<path d="M400.59 469.423C396.202 469.423 393.085 468.531 391.238 466.748C389.467 464.884 388.582 462.17 388.583 458.604C388.583 457.551 388.622 455.89 388.699 453.621C388.853 451.271 389.046 448.516 389.277 445.356C389.508 442.196 389.74 438.752 389.971 435.024C390.279 431.297 390.587 427.489 390.896 423.599C391.281 418.818 391.589 414.726 391.821 411.323C392.129 407.839 392.36 404.881 392.514 402.45C392.669 399.938 392.784 397.872 392.862 396.251C393.016 394.55 393.093 393.091 393.093 391.876C393.17 390.579 393.209 389.404 393.209 388.351C393.286 387.297 393.324 386.163 393.325 384.947C393.325 384.299 393.517 383.854 393.902 383.61C394.287 383.286 394.672 383.124 395.057 383.124C397.058 383.125 399.252 383.084 401.638 383.004C404.024 382.842 406.411 382.68 408.797 382.518C411.183 382.356 413.493 382.235 415.725 382.154C417.957 381.992 419.92 381.912 421.614 381.912C426.54 381.912 430.774 382.561 434.314 383.858C437.855 385.074 440.703 386.897 442.858 389.328C445.09 391.678 446.706 394.555 447.707 397.959C448.784 401.362 449.323 405.252 449.322 409.627C449.322 414.408 448.705 419.027 447.473 423.483C446.318 427.859 444.47 431.748 441.93 435.151C439.389 438.554 436.117 441.269 432.114 443.294C428.111 445.319 423.339 446.332 417.797 446.331C414.487 446.331 411.677 445.966 409.368 445.236L407.749 467.601C407.672 468.249 407.518 468.735 407.287 469.059C407.056 469.302 406.594 469.424 405.901 469.424L400.59 469.423ZM419.302 400.143C418.302 400.143 417.186 400.224 415.954 400.386C414.722 400.467 413.414 400.589 412.028 400.75C411.874 404.154 411.681 408.286 411.449 413.148C411.218 418.01 410.91 423.115 410.524 428.463C411.679 428.787 412.795 429.03 413.873 429.193C415.027 429.274 416.066 429.314 416.99 429.314C419.684 429.315 421.84 428.667 423.456 427.37C425.15 425.993 426.459 424.332 427.383 422.387C428.306 420.443 428.923 418.417 429.231 416.31C429.539 414.203 429.693 412.38 429.693 410.841C429.693 407.356 428.924 404.723 427.385 402.94C425.922 401.076 423.228 400.144 419.302 400.143Z" fill="url(#paint14_linear_7_604)"/>
<path d="M396.251 464.563C391.864 464.562 388.746 463.671 386.899 461.888C385.129 460.024 384.244 457.309 384.244 453.744C384.244 452.69 384.283 451.029 384.36 448.76C384.514 446.411 384.707 443.656 384.938 440.495C385.17 437.335 385.401 433.891 385.632 430.164C385.941 426.437 386.249 422.628 386.557 418.739C386.943 413.958 387.251 409.866 387.482 406.462C387.79 402.978 388.022 400.021 388.176 397.59C388.33 395.078 388.446 393.011 388.523 391.391C388.677 389.689 388.754 388.231 388.754 387.015C388.831 385.719 388.87 384.544 388.87 383.49C388.947 382.437 388.986 381.302 388.986 380.087C388.986 379.439 389.178 378.993 389.563 378.75C389.948 378.426 390.333 378.264 390.718 378.264C392.719 378.264 394.913 378.224 397.3 378.143C399.686 377.981 402.072 377.819 404.458 377.658C406.845 377.496 409.154 377.375 411.386 377.294C413.619 377.132 415.581 377.051 417.275 377.051C422.201 377.052 426.435 377.7 429.976 378.997C433.517 380.213 436.365 382.037 438.52 384.468C440.752 386.818 442.368 389.695 443.368 393.098C444.446 396.502 444.984 400.391 444.983 404.767C444.983 409.548 444.367 414.166 443.135 418.623C441.98 422.998 440.132 426.888 437.591 430.291C435.051 433.694 431.779 436.408 427.776 438.433C423.773 440.459 419 441.471 413.458 441.471C410.148 441.47 407.338 441.105 405.029 440.376L403.41 462.74C403.333 463.389 403.179 463.875 402.948 464.199C402.717 464.442 402.256 464.563 401.563 464.563L396.251 464.563ZM414.964 395.283C413.963 395.283 412.847 395.364 411.615 395.526C410.384 395.607 409.075 395.728 407.689 395.89C407.535 399.293 407.342 403.426 407.111 408.288C406.879 413.15 406.571 418.254 406.186 423.603C407.34 423.927 408.456 424.17 409.534 424.332C410.689 424.413 411.728 424.454 412.651 424.454C415.346 424.454 417.501 423.806 419.118 422.51C420.811 421.133 422.12 419.472 423.044 417.527C423.968 415.582 424.584 413.557 424.892 411.45C425.2 409.343 425.354 407.52 425.354 405.98C425.355 402.496 424.585 399.862 423.046 398.079C421.584 396.216 418.89 395.283 414.964 395.283Z" fill="url(#paint15_linear_7_604)"/>
<mask id="mask0_7_604" style="mask-type:alpha" maskUnits="userSpaceOnUse" x="384" y="377" width="61" height="88">
<path d="M396.251 464.563C391.864 464.562 388.746 463.671 386.899 461.888C385.129 460.024 384.244 457.309 384.244 453.744C384.244 452.69 384.283 451.029 384.36 448.76C384.514 446.411 384.707 443.656 384.938 440.495C385.17 437.335 385.401 433.891 385.632 430.164C385.941 426.437 386.249 422.628 386.557 418.739C386.943 413.958 387.251 409.866 387.482 406.462C387.79 402.978 388.022 400.021 388.176 397.59C388.33 395.078 388.446 393.011 388.523 391.391C388.677 389.689 388.754 388.231 388.754 387.015C388.831 385.719 388.87 384.544 388.87 383.49C388.947 382.437 388.986 381.302 388.986 380.087C388.986 379.439 389.178 378.993 389.563 378.75C389.948 378.426 390.333 378.264 390.718 378.264C392.719 378.264 394.913 378.224 397.3 378.143C399.686 377.981 402.072 377.819 404.458 377.658C406.845 377.496 409.154 377.375 411.386 377.294C413.619 377.132 415.581 377.051 417.275 377.051C422.201 377.052 426.435 377.7 429.976 378.997C433.517 380.213 436.365 382.037 438.52 384.468C440.752 386.818 442.368 389.695 443.368 393.098C444.446 396.502 444.984 400.391 444.983 404.767C444.983 409.548 444.367 414.166 443.135 418.623C441.98 422.998 440.132 426.888 437.591 430.291C435.051 433.694 431.779 436.408 427.776 438.433C423.773 440.459 419 441.471 413.458 441.471C410.148 441.47 407.338 441.105 405.029 440.376L403.41 462.74C403.333 463.389 403.179 463.875 402.948 464.199C402.717 464.442 402.256 464.563 401.563 464.563L396.251 464.563ZM414.964 395.283C413.963 395.283 412.847 395.364 411.615 395.526C410.384 395.607 409.075 395.728 407.689 395.89C407.535 399.293 407.342 403.426 407.111 408.288C406.879 413.15 406.571 418.254 406.186 423.603C407.34 423.927 408.456 424.17 409.534 424.332C410.689 424.413 411.728 424.454 412.651 424.454C415.346 424.454 417.501 423.806 419.118 422.51C420.811 421.133 422.12 419.472 423.044 417.527C423.968 415.582 424.584 413.557 424.892 411.45C425.2 409.343 425.354 407.52 425.354 405.98C425.355 402.496 424.585 399.862 423.046 398.079C421.584 396.216 418.89 395.283 414.964 395.283Z" fill="url(#paint16_linear_7_604)"/>
</mask>
<g mask="url(#mask0_7_604)">
<g style="mix-blend-mode:soft-light">
<path d="M345.495 456.934C348.412 462.837 395.286 440.846 417.262 434.624C439.459 428.329 472.907 437.707 476.102 434.884C479.314 432.061 479.707 388.197 468.502 365.859C456.975 342.87 455.758 366.446 441.884 376.704C428.203 386.807 374.471 402.996 363.225 401.069C351.963 399.141 348.336 392.979 344.106 393.497C339.878 393.994 331.254 428.031 345.495 456.934V456.934Z" fill="white" fill-opacity="0.7"/>
</g>
</g>
<path d="M439.151 387.894C439.151 387.894 434.935 385.012 432.151 391.276C429.386 397.488 437.601 407.078 440.988 407.006C444.376 406.934 442.468 390.897 439.151 387.894Z" fill="white"/>
<defs>
<radialGradient id="paint0_radial_7_604" cx="0" cy="0" r="1" gradientUnits="userSpaceOnUse" gradientTransform="translate(417.271 416.99) rotate(90) scale(204.99 17.372)">
<stop stop-color="white" stop-opacity="0.3"/>
<stop offset="1" stop-color="white" stop-opacity="0"/>
</radialGradient>
<radialGradient id="paint1_radial_7_604" cx="0" cy="0" r="1" gradientUnits="userSpaceOnUse" gradientTransform="translate(417.874 418.896) scale(184.649 12.8702)">
<stop stop-color="white" stop-opacity="0.3"/>
<stop offset="1" stop-color="white" stop-opacity="0"/>
</radialGradient>
<radialGradient id="paint2_radial_7_604" cx="0" cy="0" r="1" gradientUnits="userSpaceOnUse" gradientTransform="translate(417.271 416.99) rotate(-35.6934) scale(156.88 8.07009)">
<stop stop-color="white" stop-opacity="0.3"/>
<stop offset="1" stop-color="white" stop-opacity="0"/>
</radialGradient>
<radialGradient id="paint3_radial_7_604" cx="0" cy="0" r="1" gradientUnits="userSpaceOnUse" gradientTransform="translate(417.242 416.998) rotate(124.693) scale(6.40936 143.895)">
<stop stop-color="white" stop-opacity="0.3"/>
<stop offset="1" stop-color="white" stop-opacity="0"/>
</radialGradient>
<radialGradient id="paint4_radial_7_604" cx="0" cy="0" r="1" gradientUnits="userSpaceOnUse" gradientTransform="translate(416 416) rotate(165.964) scale(367.545)">
<stop stop-color="#3DFDDA" stop-opacity="0.8"/>
<stop offset="0.439612" stop-color="#5EB1ED" stop-opacity="0.39"/>
<stop offset="0.817418" stop-color="#913DFD" stop-opacity="0.12"/>
<stop offset="0.956915" stop-color="#913DFD" stop-opacity="0"/>
</radialGradient>
<linearGradient id="paint5_linear_7_604" x1="489.145" y1="321.735" x2="340.088" y2="461.064" gradientUnits="userSpaceOnUse">
<stop stop-color="#0BF4A8"/>
<stop offset="0.322917" stop-color="#6796CE"/>
<stop offset="1" stop-color="#D328FB"/>
</linearGradient>
<linearGradient id="paint6_linear_7_604" x1="435.571" y1="319.264" x2="380.935" y2="329.368" gradientUnits="userSpaceOnUse">
<stop stop-color="#0BF4A8"/>
<stop offset="0.322917" stop-color="#6796CE"/>
<stop offset="1" stop-color="#D328FB"/>
</linearGradient>
<linearGradient id="paint7_linear_7_604" x1="308.925" y1="371.855" x2="437.156" y2="542.571" gradientUnits="userSpaceOnUse">
<stop stop-color="#AB17CE"/>
<stop offset="0.345517" stop-color="#6796CE"/>
<stop offset="1" stop-color="#0BF4A8"/>
</linearGradient>
<linearGradient id="paint8_linear_7_604" x1="409.959" y1="483.343" x2="409.959" y2="360.648" gradientUnits="userSpaceOnUse">
<stop stop-color="#652FAE"/>
<stop offset="1" stop-color="#642FAE"/>
</linearGradient>
<linearGradient id="paint9_linear_7_604" x1="342.689" y1="475.739" x2="464.33" y2="398.863" gradientUnits="userSpaceOnUse">
<stop stop-color="#D328FB"/>
<stop offset="0.524902" stop-color="#558CCE"/>
<stop offset="1" stop-color="#0BF4A8"/>
</linearGradient>
<linearGradient id="paint10_linear_7_604" x1="489.238" y1="447.65" x2="472.047" y2="460.741" gradientUnits="userSpaceOnUse">
<stop stop-color="#0BF4A8"/>
<stop offset="0.322917" stop-color="#6796CE"/>
<stop offset="1" stop-color="#D328FB"/>
</linearGradient>
<linearGradient id="paint11_linear_7_604" x1="469.712" y1="450.858" x2="458.483" y2="462.253" gradientUnits="userSpaceOnUse">
<stop stop-color="#0BF4A8"/>
<stop offset="0.322917" stop-color="#6796CE"/>
<stop offset="1" stop-color="#D328FB"/>
</linearGradient>
<linearGradient id="paint12_linear_7_604" x1="374.485" y1="376.825" x2="365.107" y2="385.676" gradientUnits="userSpaceOnUse">
<stop stop-color="#0BF4A8"/>
<stop offset="0.322917" stop-color="#6796CE"/>
<stop offset="1" stop-color="#D328FB"/>
</linearGradient>
<linearGradient id="paint13_linear_7_604" x1="469.807" y1="323.496" x2="446.137" y2="401.416" gradientUnits="userSpaceOnUse">
<stop stop-color="#0BF4A8"/>
<stop offset="0.322917" stop-color="#6796CE"/>
<stop offset="1" stop-color="#D328FB"/>
</linearGradient>
<linearGradient id="paint14_linear_7_604" x1="457.993" y1="459.705" x2="384.751" y2="394.034" gradientUnits="userSpaceOnUse">
<stop stop-color="#9316B0"/>
<stop offset="1" stop-color="#1357A9"/>
</linearGradient>
<linearGradient id="paint15_linear_7_604" x1="449.316" y1="454.845" x2="395.507" y2="374.383" gradientUnits="userSpaceOnUse">
<stop stop-color="#D328FB"/>
<stop offset="0.47368" stop-color="#75B2FB"/>
<stop offset="1" stop-color="#0BF4A8"/>
</linearGradient>
<linearGradient id="paint16_linear_7_604" x1="449.316" y1="454.845" x2="395.507" y2="374.383" gradientUnits="userSpaceOnUse">
<stop stop-color="#D328FB"/>
<stop offset="0.47368" stop-color="#75B2FB"/>
<stop offset="1" stop-color="#0BF4A8"/>
</linearGradient>
</defs>
</svg>
